<?xml version="1.0" standalone="no"?>
<!DOCTYPE svg PUBLIC "-//W3C//DTD SVG 20010904//EN"
 "http://www.w3.org/TR/2001/REC-SVG-20010904/DTD/svg10.dtd">
<svg version="1.0" xmlns="http://www.w3.org/2000/svg"
 width="2453.000000pt" height="2453.000000pt" viewBox="0 0 2453.000000 2453.000000"
 preserveAspectRatio="xMidYMid meet">
<metadata>
Created by potrace 1.14, written by Peter Selinger 2001-2017
</metadata>
<g transform="translate(0.000000,2453.000000) scale(0.100000,-0.100000)"
fill="#000000" stroke="none">
<path d="M13079 24523 c0 -5 -1 -1502 -1 -3328 0 -2972 2 -3454 17 -3585 2
-19 6 -60 10 -90 3 -30 7 -66 9 -80 9 -62 17 -117 21 -140 3 -14 7 -38 10 -55
6 -37 8 -46 35 -165 37 -165 105 -399 141 -485 4 -11 20 -51 35 -90 14 -38 37
-94 50 -123 13 -29 24 -55 24 -58 0 -7 125 -256 162 -323 53 -96 195 -321 208
-331 4 -3 13 -16 20 -30 17 -32 174 -233 254 -325 123 -143 305 -322 473 -467
112 -96 347 -262 513 -362 52 -32 102 -61 110 -67 8 -5 92 -47 185 -93 366
-182 762 -310 1148 -371 17 -3 43 -8 57 -10 26 -5 69 -10 175 -20 33 -3 80 -9
105 -13 25 -3 1212 -7 2638 -9 l2592 -4 0 1638 0 1638 -2489 -1 c-2729 -2
-2563 -5 -2720 57 -211 84 -396 278 -466 489 -26 78 -27 84 -40 159 -4 24 -7
1530 -7 3347 l-1 3304 -1633 0 c-899 0 -1634 -3 -1635 -7z"/>
<path d="M7361 22890 c-4 -3 -7 -1114 -6 -2470 0 -1356 -3 -2496 -8 -2535 -14
-126 -73 -274 -151 -380 -65 -87 -168 -177 -271 -235 -47 -26 -152 -67 -192
-75 -15 -3 -39 -8 -53 -12 -14 -4 -1049 -8 -2300 -9 -1251 -2 -2290 -3 -2307
-4 l-33 0 0 -1635 0 -1636 2397 4 c1319 2 2418 7 2443 10 25 3 70 8 100 12
134 16 181 23 310 46 219 39 612 152 734 210 22 11 43 19 47 19 13 0 133 54
284 129 1110 549 1920 1589 2179 2801 14 63 27 135 31 160 3 25 8 52 10 60 2
8 7 39 10 69 4 30 8 61 10 70 1 9 6 50 9 91 4 41 9 102 13 135 7 74 10 5175 3
5176 -16 4 -3253 3 -3259 -1z"/>
<path d="M2040 9405 l0 -1635 53 0 c28 -1 1058 -1 2288 -1 1812 -1 2249 -3
2305 -14 323 -62 570 -301 650 -631 16 -63 17 -271 18 -2564 1 -1372 4 -2499
8 -2505 7 -11 3235 -14 3253 -3 7 4 10 853 9 2545 -1 2303 -3 2644 -19 2766
-3 20 -7 56 -10 80 -7 53 -25 184 -30 217 -39 239 -169 684 -252 860 -10 19
-18 40 -19 46 -4 25 -156 327 -214 424 -95 162 -223 354 -306 460 -393 500
-862 885 -1419 1163 -60 30 -139 67 -175 82 -36 15 -81 35 -100 43 -19 9 -39
17 -45 18 -5 2 -53 19 -105 39 -89 33 -364 118 -420 129 -14 3 -70 14 -125 26
-147 32 -280 53 -405 65 -36 4 -81 9 -100 13 -19 3 -1116 7 -2437 9 l-2403 4
0 -1636z"/>
<path d="M17657 10634 c-1 -1 -94 -4 -207 -7 -113 -4 -216 -8 -230 -11 -14 -2
-57 -7 -97 -11 -39 -3 -84 -8 -100 -11 -15 -3 -41 -7 -58 -9 -73 -8 -274 -48
-400 -81 -376 -95 -796 -270 -1092 -455 -34 -22 -67 -39 -72 -39 -5 0 -11 -3
-13 -7 -1 -5 -55 -43 -119 -86 -250 -167 -537 -418 -734 -641 -33 -38 -65 -73
-70 -80 -16 -17 -137 -169 -162 -202 -12 -16 -37 -49 -55 -74 -77 -102 -209
-319 -306 -500 -55 -103 -166 -353 -171 -383 0 -4 -7 -20 -15 -35 -43 -84
-158 -479 -191 -657 -23 -124 -46 -269 -51 -329 -3 -39 -8 -80 -10 -90 -14
-77 -17 -682 -18 -3611 l0 -3310 1635 -1 1635 -1 -1 3281 c0 1805 3 3308 7
3341 16 125 35 190 83 285 113 224 346 399 580 436 28 4 53 9 58 10 4 1 1130
2 2502 3 l2495 1 0 1635 c0 1550 -1 1635 -17 1635 -77 1 -4805 5 -4806 4z"/>
</g>
</svg>
