<svg width="88" height="89" viewBox="0 0 88 89" fill="none" xmlns="http://www.w3.org/2000/svg">
<path d="M44.0178 81.5468C23.7673 81.5468 7.35107 65.1308 7.35107 44.8802C7.35107 24.6298 23.7673 8.21362 44.0178 8.21362C64.2681 8.21362 80.6845 24.6298 80.6845 44.8802C80.6845 65.1308 64.2681 81.5468 44.0178 81.5468ZM40.3511 59.5468V66.8802H47.6845V59.5468H51.3512C56.4137 59.5468 60.5178 55.4427 60.5178 50.3802C60.5178 48.3166 59.8358 46.4125 58.6852 44.8802C59.8358 43.3482 60.5178 41.4438 60.5178 39.3802C60.5178 34.3177 56.4137 30.2136 51.3512 30.2136H47.6845V22.8803H40.3511V30.2136H29.3511V59.5468H40.3511ZM36.6845 48.5468H51.3512C52.3635 48.5468 53.1845 49.3678 53.1845 50.3802C53.1845 51.3929 52.3635 52.2135 51.3512 52.2135H36.6845V48.5468ZM36.6845 37.5468H51.3512C52.3635 37.5468 53.1845 38.3678 53.1845 39.3802C53.1845 40.3929 52.3635 41.2135 51.3512 41.2135H36.6845V37.5468Z" fill="#FFAD4A"/>
</svg>
