<svg width="165" height="133" viewBox="0 0 165 133" fill="none" xmlns="http://www.w3.org/2000/svg">
<rect y="0.000488281" width="18.9779" height="68.7949" rx="2.9653" fill="#FF003D"/>
<rect y="56.3413" width="18.9779" height="12.4542" rx="2.9653" fill="#FF003D"/>
<rect y="0.000488281" width="18.9779" height="12.4542" rx="2.9653" fill="#FF003D"/>
<rect x="22.5112" y="14.8267" width="18.9779" height="53.9684" rx="2.9653" fill="#FF003D"/>
<rect x="22.5112" y="56.3408" width="18.9779" height="12.4542" rx="2.9653" fill="#FF003D"/>
<rect x="22.5112" y="14.8267" width="18.9779" height="12.4542" rx="2.9653" fill="#FF003D"/>
<rect x="45.022" width="18.9779" height="68.7949" rx="2.9653" fill="#FF003D"/>
<rect x="45.022" y="56.3408" width="18.9779" height="12.4542" rx="2.9653" fill="#FF003D"/>
<rect x="45.022" width="18.9779" height="12.4542" rx="2.9653" fill="#FF003D"/>
<path d="M15.3712 123.41C13.4631 123.41 11.9295 123.029 10.7705 122.265C10.0779 121.813 9.32874 121.022 8.52308 119.891V122.795H2.60781V91.5865H8.62909V102.696C9.39235 101.622 10.2333 100.802 11.1521 100.237C12.2404 99.5301 13.6256 99.1767 15.3076 99.1767C18.3465 99.1767 20.7211 100.272 22.4314 102.463C24.1558 104.654 25.018 107.481 25.018 110.944C25.018 114.534 24.1699 117.509 22.4738 119.87C20.7777 122.23 18.4101 123.41 15.3712 123.41ZM18.6787 111.58C18.6787 109.94 18.4667 108.583 18.0426 107.509C17.237 105.474 15.7529 104.456 13.5903 104.456C11.3994 104.456 9.89412 105.452 9.07432 107.445C8.65029 108.505 8.43827 109.877 8.43827 111.559C8.43827 113.537 8.87644 115.177 9.75278 116.477C10.6291 117.778 11.9648 118.428 13.7599 118.428C15.3147 118.428 16.5232 117.799 17.3854 116.541C18.2476 115.283 18.6787 113.629 18.6787 111.58ZM50.3735 102.611C52.3241 105.057 53.2993 107.947 53.2993 111.283C53.2993 114.675 52.3241 117.58 50.3735 119.997C48.423 122.4 45.4618 123.601 41.49 123.601C37.5182 123.601 34.5571 122.4 32.6065 119.997C30.6559 117.58 29.6807 114.675 29.6807 111.283C29.6807 107.947 30.6559 105.057 32.6065 102.611C34.5571 100.166 37.5182 98.9435 41.49 98.9435C45.4618 98.9435 48.423 100.166 50.3735 102.611ZM41.4688 104.053C39.702 104.053 38.338 104.682 37.3769 105.94C36.4299 107.184 35.9564 108.965 35.9564 111.283C35.9564 113.601 36.4299 115.389 37.3769 116.647C38.338 117.905 39.702 118.534 41.4688 118.534C43.2356 118.534 44.5925 117.905 45.5395 116.647C46.4865 115.389 46.96 113.601 46.96 111.283C46.96 108.965 46.4865 107.184 45.5395 105.94C44.5925 104.682 43.2356 104.053 41.4688 104.053ZM78.6549 102.611C80.6054 105.057 81.5807 107.947 81.5807 111.283C81.5807 114.675 80.6054 117.58 78.6549 119.997C76.7043 122.4 73.7431 123.601 69.7714 123.601C65.7996 123.601 62.8384 122.4 60.8879 119.997C58.9373 117.58 57.962 114.675 57.962 111.283C57.962 107.947 58.9373 105.057 60.8879 102.611C62.8384 100.166 65.7996 98.9435 69.7714 98.9435C73.7431 98.9435 76.7043 100.166 78.6549 102.611ZM69.7502 104.053C67.9833 104.053 66.6194 104.682 65.6582 105.94C64.7112 107.184 64.2377 108.965 64.2377 111.283C64.2377 113.601 64.7112 115.389 65.6582 116.647C66.6194 117.905 67.9833 118.534 69.7502 118.534C71.517 118.534 72.8739 117.905 73.8209 116.647C74.7679 115.389 75.2414 113.601 75.2414 111.283C75.2414 108.965 74.7679 107.184 73.8209 105.94C72.8739 104.682 71.517 104.053 69.7502 104.053ZM108.866 122.795H101.572L96.0386 112.915L93.5368 115.523V122.795H87.6003V91.6501H93.5368V108.484L101.063 99.7916H108.548L100.47 108.633L108.866 122.795ZM113.698 91.5441H119.74V122.795H113.698V91.5441ZM133.605 99.6856V122.795H127.477V99.6856H133.605ZM133.605 91.3533V96.9294H127.477V91.3533H133.605ZM153.766 123.41C151.858 123.41 150.324 123.029 149.165 122.265C148.472 121.813 147.723 121.022 146.918 119.891V122.795H141.002V91.5865H147.024V102.696C147.787 101.622 148.628 100.802 149.547 100.237C150.635 99.5301 152.02 99.1767 153.702 99.1767C156.741 99.1767 159.116 100.272 160.826 102.463C162.55 104.654 163.412 107.481 163.412 110.944C163.412 114.534 162.564 117.509 160.868 119.87C159.172 122.23 156.805 123.41 153.766 123.41ZM157.073 111.58C157.073 109.94 156.861 108.583 156.437 107.509C155.631 105.474 154.147 104.456 151.985 104.456C149.794 104.456 148.289 105.452 147.469 107.445C147.045 108.505 146.833 109.877 146.833 111.559C146.833 113.537 147.271 115.177 148.147 116.477C149.024 117.778 150.359 118.428 152.154 118.428C153.709 118.428 154.918 117.799 155.78 116.541C156.642 115.283 157.073 113.629 157.073 111.58Z" fill="#F5F5F3"/>
<path d="M10.7705 122.265L11.1042 121.759L11.1023 121.757L10.7705 122.265ZM8.52308 119.891L9.01735 119.539L7.91618 117.993V119.891H8.52308ZM8.52308 122.795V123.402H9.12997V122.795H8.52308ZM2.60781 122.795H2.00091V123.402H2.60781V122.795ZM2.60781 91.5865V90.9796H2.00091V91.5865H2.60781ZM8.62909 91.5865H9.23598V90.9796H8.62909V91.5865ZM8.62909 102.696H8.02219V104.598L9.12382 103.048L8.62909 102.696ZM11.1521 100.237L11.4702 100.754L11.4764 100.75L11.4826 100.746L11.1521 100.237ZM22.4314 102.463L21.953 102.836L21.9545 102.838L22.4314 102.463ZM18.0426 107.509L18.6071 107.286L18.6069 107.286L18.0426 107.509ZM9.07432 107.445L8.51303 107.215L8.51083 107.22L9.07432 107.445ZM17.3854 116.541L16.8848 116.198L17.3854 116.541ZM15.3712 122.803C13.5386 122.803 12.1335 122.436 11.1042 121.759L10.4367 122.772C11.7255 123.621 13.3875 124.017 15.3712 124.017V122.803ZM11.1023 121.757C10.5019 121.365 9.80479 120.644 9.01735 119.539L8.02881 120.243C8.8527 121.399 9.65386 122.261 10.4386 122.774L11.1023 121.757ZM7.91618 119.891V122.795H9.12997V119.891H7.91618ZM8.52308 122.189H2.60781V123.402H8.52308V122.189ZM3.2147 122.795V91.5865H2.00091V122.795H3.2147ZM2.60781 92.1934H8.62909V90.9796H2.60781V92.1934ZM8.02219 91.5865V102.696H9.23598V91.5865H8.02219ZM9.12382 103.048C9.85007 102.026 10.6344 101.268 11.4702 100.754L10.834 99.7199C9.83233 100.336 8.93462 101.218 8.13436 102.345L9.12382 103.048ZM11.4826 100.746C12.4473 100.119 13.7086 99.7836 15.3076 99.7836V98.5698C13.5426 98.5698 12.0336 98.9408 10.8216 99.7278L11.4826 100.746ZM15.3076 99.7836C18.1797 99.7836 20.3695 100.808 21.953 102.836L22.9098 102.09C21.0727 99.7363 18.5134 98.5698 15.3076 98.5698V99.7836ZM21.9545 102.838C23.576 104.898 24.4111 107.583 24.4111 110.944H25.6249C25.6249 107.378 24.7356 104.409 22.9083 102.088L21.9545 102.838ZM24.4111 110.944C24.4111 114.437 23.587 117.28 21.9809 119.515L22.9666 120.224C24.7528 117.738 25.6249 114.631 25.6249 110.944H24.4111ZM21.9809 119.515C20.4048 121.709 18.2252 122.803 15.3712 122.803V124.017C18.595 124.017 21.1505 122.751 22.9666 120.224L21.9809 119.515ZM19.2856 111.58C19.2856 109.893 19.0683 108.454 18.6071 107.286L17.4781 107.732C17.865 108.712 18.0718 109.987 18.0718 111.58H19.2856ZM18.6069 107.286C18.1694 106.18 17.53 105.309 16.6685 104.719C15.8065 104.128 14.7689 103.849 13.5903 103.849V105.063C14.5742 105.063 15.36 105.293 15.9821 105.72C16.6047 106.147 17.1102 106.802 17.4783 107.732L18.6069 107.286ZM13.5903 103.849C12.4014 103.849 11.3546 104.12 10.4832 104.697C9.61096 105.275 8.96004 106.128 8.51306 107.215L9.63559 107.676C10.0084 106.77 10.52 106.128 11.1532 105.709C11.787 105.29 12.5883 105.063 13.5903 105.063V103.849ZM8.51083 107.22C8.04793 108.377 7.83138 109.833 7.83138 111.559H9.04517C9.04517 109.92 9.25264 108.634 9.63781 107.671L8.51083 107.22ZM7.83138 111.559C7.83138 113.627 8.28987 115.393 9.2495 116.816L10.2561 116.138C9.46301 114.961 9.04517 113.448 9.04517 111.559H7.83138ZM9.2495 116.816C10.2564 118.311 11.797 119.035 13.7599 119.035V117.821C12.1327 117.821 11.0018 117.245 10.2561 116.138L9.2495 116.816ZM13.7599 119.035C15.5102 119.035 16.908 118.311 17.886 116.884L16.8848 116.198C16.1384 117.287 15.1192 117.821 13.7599 117.821V119.035ZM17.886 116.884C18.8376 115.496 19.2856 113.71 19.2856 111.58H18.0718C18.0718 113.548 17.6576 115.07 16.8848 116.198L17.886 116.884ZM50.3735 102.611L50.848 102.233L50.3735 102.611ZM50.3735 119.997L50.8447 120.379L50.8458 120.378L50.3735 119.997ZM32.6065 119.997L32.1342 120.378L32.1353 120.379L32.6065 119.997ZM32.6065 102.611L32.1321 102.233L32.6065 102.611ZM37.3769 105.94L36.8946 105.572L36.894 105.572L37.3769 105.94ZM37.3769 116.647L36.892 117.012L36.8946 117.015L37.3769 116.647ZM45.5395 116.647L45.0547 116.282L45.5395 116.647ZM45.5395 105.94L45.0547 106.305L45.0567 106.308L45.5395 105.94ZM49.8991 102.99C51.758 105.32 52.6924 108.075 52.6924 111.283H53.9062C53.9062 107.819 52.8902 104.793 50.848 102.233L49.8991 102.99ZM52.6924 111.283C52.6924 114.55 51.7565 117.317 49.9012 119.616L50.8458 120.378C52.8917 117.843 53.9062 114.8 53.9062 111.283H52.6924ZM49.9023 119.614C48.0983 121.837 45.3351 122.994 41.49 122.994V124.208C45.5885 124.208 48.7476 122.963 50.8447 120.379L49.9023 119.614ZM41.49 122.994C37.6449 122.994 34.8817 121.837 33.0777 119.614L32.1353 120.379C34.2324 122.963 37.3915 124.208 41.49 124.208V122.994ZM33.0788 119.616C31.2235 117.317 30.2876 114.55 30.2876 111.283H29.0738C29.0738 114.8 30.0883 117.843 32.1342 120.378L33.0788 119.616ZM30.2876 111.283C30.2876 108.075 31.2221 105.32 33.0809 102.99L32.1321 102.233C30.0898 104.793 29.0738 107.819 29.0738 111.283H30.2876ZM33.0809 102.99C34.8862 100.727 37.6485 99.5504 41.49 99.5504V98.3366C37.3879 98.3366 34.2279 99.6056 32.1321 102.233L33.0809 102.99ZM41.49 99.5504C45.3315 99.5504 48.0938 100.727 49.8991 102.99L50.848 102.233C48.7521 99.6056 45.5921 98.3366 41.49 98.3366V99.5504ZM41.4688 103.446C39.538 103.446 37.985 104.144 36.8946 105.572L37.8591 106.309C38.691 105.22 39.866 104.66 41.4688 104.66V103.446ZM36.894 105.572C35.836 106.962 35.3495 108.893 35.3495 111.283H36.5633C36.5633 109.036 37.0238 107.406 37.8597 106.308L36.894 105.572ZM35.3495 111.283C35.3495 113.673 35.8362 115.609 36.892 117.012L37.8617 116.282C37.0235 115.168 36.5633 113.529 36.5633 111.283H35.3495ZM36.8946 117.015C37.985 118.443 39.538 119.141 41.4688 119.141V117.927C39.866 117.927 38.691 117.367 37.8591 116.278L36.8946 117.015ZM41.4688 119.141C43.3996 119.141 44.9476 118.442 46.0244 117.012L45.0547 116.282C44.2375 117.367 43.0717 117.927 41.4688 117.927V119.141ZM46.0244 117.012C47.0802 115.609 47.5669 113.673 47.5669 111.283H46.3531C46.3531 113.529 45.8929 115.168 45.0547 116.282L46.0244 117.012ZM47.5669 111.283C47.5669 108.893 47.0804 106.962 46.0224 105.572L45.0567 106.308C45.8926 107.406 46.3531 109.036 46.3531 111.283H47.5669ZM46.0244 105.575C44.9476 104.145 43.3996 103.446 41.4688 103.446V104.66C43.0717 104.66 44.2375 105.22 45.0547 106.305L46.0244 105.575ZM78.6549 102.611L79.1293 102.233L78.6549 102.611ZM78.6549 119.997L79.1261 120.379L79.1271 120.378L78.6549 119.997ZM60.8879 119.997L60.4156 120.378L60.4167 120.379L60.8879 119.997ZM60.8879 102.611L60.4134 102.233L60.8879 102.611ZM65.6582 105.94L65.176 105.572L65.1754 105.572L65.6582 105.94ZM65.6582 116.647L65.1734 117.012L65.176 117.015L65.6582 116.647ZM73.8209 116.647L73.336 116.282L73.8209 116.647ZM73.8209 105.94L73.336 106.305L73.338 106.308L73.8209 105.94ZM78.1804 102.99C80.0393 105.32 80.9738 108.075 80.9738 111.283H82.1876C82.1876 107.819 81.1715 104.793 79.1293 102.233L78.1804 102.99ZM80.9738 111.283C80.9738 114.55 80.0378 117.317 78.1826 119.616L79.1271 120.378C81.173 117.843 82.1876 114.8 82.1876 111.283H80.9738ZM78.1837 119.614C76.3796 121.837 73.6164 122.994 69.7714 122.994V124.208C73.8698 124.208 77.029 122.963 79.1261 120.379L78.1837 119.614ZM69.7714 122.994C65.9263 122.994 63.1631 121.837 61.359 119.614L60.4167 120.379C62.5137 122.963 65.6729 124.208 69.7714 124.208V122.994ZM61.3601 119.616C59.5049 117.317 58.5689 114.55 58.5689 111.283H57.3551C57.3551 114.8 58.3697 117.843 60.4156 120.378L61.3601 119.616ZM58.5689 111.283C58.5689 108.075 59.5034 105.32 61.3623 102.99L60.4134 102.233C58.3712 104.793 57.3551 107.819 57.3551 111.283H58.5689ZM61.3623 102.99C63.1676 100.727 65.9299 99.5504 69.7714 99.5504V98.3366C65.6693 98.3366 62.5092 99.6056 60.4134 102.233L61.3623 102.99ZM69.7714 99.5504C73.6128 99.5504 76.3751 100.727 78.1804 102.99L79.1293 102.233C77.0335 99.6056 73.8734 98.3366 69.7714 98.3366V99.5504ZM69.7502 103.446C67.8194 103.446 66.2664 104.144 65.176 105.572L66.1405 106.309C66.9724 105.22 68.1473 104.66 69.7502 104.66V103.446ZM65.1754 105.572C64.1173 106.962 63.6308 108.893 63.6308 111.283H64.8446C64.8446 109.036 65.3051 107.406 66.1411 106.308L65.1754 105.572ZM63.6308 111.283C63.6308 113.673 64.1176 115.609 65.1734 117.012L66.1431 116.282C65.3049 115.168 64.8446 113.529 64.8446 111.283H63.6308ZM65.176 117.015C66.2664 118.443 67.8194 119.141 69.7502 119.141V117.927C68.1473 117.927 66.9724 117.367 66.1405 116.278L65.176 117.015ZM69.7502 119.141C71.6809 119.141 73.2289 118.442 74.3057 117.012L73.336 116.282C72.5188 117.367 71.353 117.927 69.7502 117.927V119.141ZM74.3057 117.012C75.3615 115.609 75.8483 113.673 75.8483 111.283H74.6345C74.6345 113.529 74.1742 115.168 73.336 116.282L74.3057 117.012ZM75.8483 111.283C75.8483 108.893 75.3618 106.962 74.3037 105.572L73.338 106.308C74.174 107.406 74.6345 109.036 74.6345 111.283H75.8483ZM74.3057 105.575C73.2289 104.145 71.6809 103.446 69.7502 103.446V104.66C71.353 104.66 72.5188 105.22 73.336 106.305L74.3057 105.575ZM108.866 122.795V123.402H109.931L109.388 122.486L108.866 122.795ZM101.572 122.795L101.043 123.092L101.217 123.402H101.572V122.795ZM96.0386 112.915L96.5681 112.619L96.1677 111.904L95.6006 112.495L96.0386 112.915ZM93.5368 115.523L93.0988 115.103L92.9299 115.279V115.523H93.5368ZM93.5368 122.795V123.402H94.1437V122.795H93.5368ZM87.6003 122.795H86.9934V123.402H87.6003V122.795ZM87.6003 91.6501V91.0432H86.9934V91.6501H87.6003ZM93.5368 91.6501H94.1437V91.0432H93.5368V91.6501ZM93.5368 108.484H92.9299V110.112L93.9956 108.882L93.5368 108.484ZM101.063 99.7916V99.1847H100.786L100.605 99.3943L101.063 99.7916ZM108.548 99.7916L108.996 100.201L109.924 99.1847H108.548V99.7916ZM100.47 108.633L100.022 108.223L99.7183 108.555L99.9476 108.942L100.47 108.633ZM108.866 122.189H101.572V123.402H108.866V122.189ZM102.102 122.499L96.5681 112.619L95.5091 113.212L101.043 123.092L102.102 122.499ZM95.6006 112.495L93.0988 115.103L93.9747 115.943L96.4765 113.336L95.6006 112.495ZM92.9299 115.523V122.795H94.1437V115.523H92.9299ZM93.5368 122.189H87.6003V123.402H93.5368V122.189ZM88.2072 122.795V91.6501H86.9934V122.795H88.2072ZM87.6003 92.257H93.5368V91.0432H87.6003V92.257ZM92.9299 91.6501V108.484H94.1437V91.6501H92.9299ZM93.9956 108.882L101.522 100.189L100.605 99.3943L93.0779 108.087L93.9956 108.882ZM101.063 100.398H108.548V99.1847H101.063V100.398ZM108.1 99.3822L100.022 108.223L100.918 109.042L108.996 100.201L108.1 99.3822ZM99.9476 108.942L108.344 123.105L109.388 122.486L100.992 108.323L99.9476 108.942ZM113.698 91.5441V90.9372H113.091V91.5441H113.698ZM119.74 91.5441H120.347V90.9372H119.74V91.5441ZM119.74 122.795V123.402H120.347V122.795H119.74ZM113.698 122.795H113.091V123.402H113.698V122.795ZM113.698 92.151H119.74V90.9372H113.698V92.151ZM119.133 91.5441V122.795H120.347V91.5441H119.133ZM119.74 122.189H113.698V123.402H119.74V122.189ZM114.305 122.795V91.5441H113.091V122.795H114.305ZM133.605 99.6856H134.211V99.0787H133.605V99.6856ZM133.605 122.795V123.402H134.211V122.795H133.605ZM127.477 122.795H126.87V123.402H127.477V122.795ZM127.477 99.6856V99.0787H126.87V99.6856H127.477ZM133.605 91.3533H134.211V90.7464H133.605V91.3533ZM133.605 96.9294V97.5362H134.211V96.9294H133.605ZM127.477 96.9294H126.87V97.5362H127.477V96.9294ZM127.477 91.3533V90.7464H126.87V91.3533H127.477ZM132.998 99.6856V122.795H134.211V99.6856H132.998ZM133.605 122.189H127.477V123.402H133.605V122.189ZM128.084 122.795V99.6856H126.87V122.795H128.084ZM127.477 100.292H133.605V99.0787H127.477V100.292ZM132.998 91.3533V96.9294H134.211V91.3533H132.998ZM133.605 96.3225H127.477V97.5362H133.605V96.3225ZM128.084 96.9294V91.3533H126.87V96.9294H128.084ZM127.477 91.9602H133.605V90.7464H127.477V91.9602ZM149.165 122.265L149.499 121.759L149.497 121.757L149.165 122.265ZM146.918 119.891L147.412 119.539L146.311 117.993V119.891H146.918ZM146.918 122.795V123.402H147.524V122.795H146.918ZM141.002 122.795H140.395V123.402H141.002V122.795ZM141.002 91.5865V90.9796H140.395V91.5865H141.002ZM147.024 91.5865H147.63V90.9796H147.024V91.5865ZM147.024 102.696H146.417V104.598L147.518 103.048L147.024 102.696ZM149.547 100.237L149.865 100.754L149.871 100.75L149.877 100.746L149.547 100.237ZM160.826 102.463L160.347 102.836L160.349 102.838L160.826 102.463ZM156.437 107.509L157.002 107.286L157.001 107.286L156.437 107.509ZM147.469 107.445L146.907 107.215L146.905 107.22L147.469 107.445ZM155.78 116.541L155.279 116.198L155.78 116.541ZM153.766 122.803C151.933 122.803 150.528 122.436 149.499 121.759L148.831 122.772C150.12 123.621 151.782 124.017 153.766 124.017V122.803ZM149.497 121.757C148.896 121.365 148.199 120.644 147.412 119.539L146.423 120.243C147.247 121.399 148.048 122.261 148.833 122.774L149.497 121.757ZM146.311 119.891V122.795H147.524V119.891H146.311ZM146.918 122.189H141.002V123.402H146.918V122.189ZM141.609 122.795V91.5865H140.395V122.795H141.609ZM141.002 92.1934H147.024V90.9796H141.002V92.1934ZM146.417 91.5865V102.696H147.63V91.5865H146.417ZM147.518 103.048C148.245 102.026 149.029 101.268 149.865 100.754L149.228 99.7199C148.227 100.336 147.329 101.218 146.529 102.345L147.518 103.048ZM149.877 100.746C150.842 100.119 152.103 99.7836 153.702 99.7836V98.5698C151.937 98.5698 150.428 98.9408 149.216 99.7278L149.877 100.746ZM153.702 99.7836C156.574 99.7836 158.764 100.808 160.347 102.836L161.304 102.09C159.467 99.7363 156.908 98.5698 153.702 98.5698V99.7836ZM160.349 102.838C161.97 104.898 162.806 107.583 162.806 110.944H164.019C164.019 107.378 163.13 104.409 161.303 102.088L160.349 102.838ZM162.806 110.944C162.806 114.437 161.981 117.28 160.375 119.515L161.361 120.224C163.147 117.738 164.019 114.631 164.019 110.944H162.806ZM160.375 119.515C158.799 121.709 156.62 122.803 153.766 122.803V124.017C156.989 124.017 159.545 122.751 161.361 120.224L160.375 119.515ZM157.68 111.58C157.68 109.893 157.463 108.454 157.002 107.286L155.873 107.732C156.259 108.712 156.466 109.987 156.466 111.58H157.68ZM157.001 107.286C156.564 106.18 155.924 105.309 155.063 104.719C154.201 104.128 153.163 103.849 151.985 103.849V105.063C152.969 105.063 153.754 105.293 154.377 105.72C154.999 106.147 155.505 106.802 155.873 107.732L157.001 107.286ZM151.985 103.849C150.796 103.849 149.749 104.12 148.878 104.697C148.005 105.275 147.354 106.128 146.907 107.215L148.03 107.676C148.403 106.77 148.914 106.128 149.548 105.709C150.181 105.29 150.983 105.063 151.985 105.063V103.849ZM146.905 107.22C146.442 108.377 146.226 109.833 146.226 111.559H147.44C147.44 109.92 147.647 108.634 148.032 107.671L146.905 107.22ZM146.226 111.559C146.226 113.627 146.684 115.393 147.644 116.816L148.65 116.138C147.857 114.961 147.44 113.448 147.44 111.559H146.226ZM147.644 116.816C148.651 118.311 150.191 119.035 152.154 119.035V117.821C150.527 117.821 149.396 117.245 148.65 116.138L147.644 116.816ZM152.154 119.035C153.905 119.035 155.302 118.311 156.28 116.884L155.279 116.198C154.533 117.287 153.514 117.821 152.154 117.821V119.035ZM156.28 116.884C157.232 115.496 157.68 113.71 157.68 111.58H156.466C156.466 113.548 156.052 115.07 155.279 116.198L156.28 116.884Z" fill="#E0E0E0"/>
</svg>
