<svg width="100" height="100" viewBox="0 0 100 100" fill="none" xmlns="http://www.w3.org/2000/svg">
<g clip-path="url(#clip0_265_10517)">
<path d="M49.8578 97.0419C75.9573 97.0419 97.1151 75.8841 97.1151 49.7846C97.1151 23.6851 75.9573 2.52734 49.8578 2.52734C23.7584 2.52734 2.60059 23.6851 2.60059 49.7846C2.60059 75.8841 23.7584 97.0419 49.8578 97.0419Z" stroke="white" stroke-width="4.17771"/>
<path fill-rule="evenodd" clip-rule="evenodd" d="M67.4665 35.4925C74.9879 41.3051 81.4328 59.7305 73.6231 71.8122C71.9252 74.4389 70.7755 75.871 68.3347 77.8267C60.3457 84.228 51.6582 83.6312 42.1905 79.7373C31.5304 75.3531 24.7486 59.5836 22.3312 50.3865C19.4876 39.5685 22.6563 30.6136 22.6563 30.6136C22.6563 30.6136 26.5939 20.1015 41.5303 24.5302C42.6962 24.8759 43.7923 25.1989 44.8258 25.5036C57.0345 29.1025 60.532 30.1335 67.4665 35.4925ZM26.7191 27.2062C27.3244 26.8662 27.9155 26.5341 28.3494 26.1312C29.2107 25.3315 29.365 26.3586 29.5434 27.5467C29.6492 28.2504 29.7634 29.0106 30.0379 29.4812C30.5421 30.3454 30.8392 30.5539 31.2089 30.8135C31.6155 31.0988 32.1099 31.4457 33.0637 32.7939C33.3445 33.1907 33.9181 33.8488 34.3752 33.6839C35.5416 33.263 34.8053 32.2383 33.9971 31.1135C33.1747 29.9686 32.2778 28.7204 33.2365 27.8996C35.3458 26.0941 37.4531 29.5646 37.9395 32.2981C38.1239 33.3346 37.3947 34.1877 36.7429 34.9502C36.0016 35.8173 35.3605 36.5673 36.2783 37.3367C36.502 37.5243 36.6155 37.4865 36.7957 37.4264C36.9155 37.3865 37.0647 37.3367 37.2952 37.3367C38.3497 37.3367 38.5152 36.4175 38.6887 35.4533C38.8565 34.5209 39.032 33.5464 40.0266 33.3209C41.1805 33.0594 40.4605 34.2338 39.5895 35.6541C38.5736 37.3112 37.3523 39.303 38.6612 39.7409C39.7005 40.0886 40.2508 39.0788 40.8124 38.0485C41.3668 37.0314 41.9321 35.9943 42.9895 36.2236C44.3673 36.5227 43.4342 37.9935 42.5379 39.4064C41.6647 40.7827 40.8266 42.1039 42.1939 42.2328C42.8378 42.2936 43.0236 42.087 43.1886 41.9039C43.3642 41.7088 43.5162 41.5401 44.1726 41.7494C45.1491 42.0606 44.7274 43.0846 44.2984 44.1265C43.8686 45.1704 43.4313 46.2322 44.3844 46.6139C44.9584 46.8438 45.1297 46.5354 45.2853 46.2556C45.4412 45.9752 45.581 45.7235 46.0941 46.0707C46.732 46.5023 46.2044 47.2157 45.6657 47.9438C45.1273 48.6717 44.5781 49.4144 45.1713 49.9051C45.7284 50.3656 46.3244 49.8602 46.9237 49.3518C47.5215 48.8451 48.1224 48.3356 48.6913 48.7778C49.356 49.2944 48.8181 50.0856 48.2594 50.9075C47.711 51.7139 47.1426 52.5499 47.6702 53.1854C48.2323 53.8625 48.8849 53.1446 49.5542 52.4083C50.2265 51.6686 50.9157 50.9104 51.5471 51.5291C52.2331 52.2014 51.5473 52.9564 50.8423 53.7328C50.1423 54.5036 49.4231 55.2954 50.0089 56.048C50.621 56.8343 51.4024 56.0639 52.1837 55.2935C52.9652 54.5231 53.7465 53.7527 54.3586 54.5391C54.9597 55.311 54.4365 55.9097 53.88 56.5464C53.3479 57.1552 52.7857 57.7988 53.1465 58.6618C53.6381 59.837 54.8303 58.9633 55.9891 58.1143C57.1318 57.2768 58.2418 56.4635 58.6144 57.6633C58.9466 58.7331 58.0192 59.2564 57.0644 59.7952C56.13 60.3223 55.1695 60.8644 55.3371 61.9475C55.5621 63.4025 57.5274 62.3828 59.2482 61.4901C60.7949 60.6876 62.1439 59.9878 61.8545 61.2789C61.6452 62.2125 60.652 62.457 59.6968 62.6922C58.6995 62.9376 57.7439 63.173 57.766 64.1718C57.7928 65.3725 59.6108 65.0531 61.2184 64.7707C62.6973 64.5109 63.9979 64.2823 63.5618 65.2973C63.2929 65.923 62.78 66.128 62.2392 66.3443C61.802 66.5191 61.3465 66.7012 60.9876 67.1189C59.4479 68.9104 62.3878 69.4435 65.6002 70.0259C69.0111 70.6444 72.7294 71.3186 71.7192 73.6143C70.8478 75.5943 70.2421 76.023 68.0592 77.113C66.3332 77.9749 65.6463 76.9943 64.8534 75.8622C64.3658 75.166 63.8381 74.4126 63.0039 73.9954C62.8547 73.9209 62.6476 73.8159 62.4166 73.6988C61.864 73.4188 61.1747 73.0693 60.8134 72.9002C60.4491 72.7297 60.0766 72.2626 59.705 71.7967C59.3407 71.3396 58.9771 70.8836 58.6229 70.7097C58.2529 70.5281 58.022 70.6765 57.8052 70.8159C57.5776 70.9622 57.3657 71.0985 57.0249 70.8318C56.7013 70.5788 56.6981 70.178 56.6947 69.7678C56.6916 69.3985 56.6886 69.0215 56.452 68.7376C56.1042 68.3204 55.5539 68.5264 54.9968 68.7349C54.4489 68.9399 53.8942 69.1475 53.5191 68.7676C53.2258 68.4709 53.247 67.9638 53.2681 67.4556C53.2889 66.9576 53.3097 66.4588 53.0347 66.1562C52.6729 65.7583 52.2384 65.828 51.81 65.8967C51.3728 65.9668 50.9418 66.036 50.6003 65.6064C50.2465 65.1609 49.8766 64.626 49.5145 64.1025C49.2581 63.7317 49.0055 63.3665 48.7655 63.0428C48.4303 62.5912 48.0408 62.5543 47.6602 62.5181C47.2655 62.4807 46.8803 62.4443 46.575 61.9477C46.3515 61.5841 46.5847 61.2012 46.8199 60.8146C47.0507 60.4355 47.2834 60.053 47.0902 59.6822C46.8353 59.1928 46.3607 59.0681 45.8858 58.9436C45.4112 58.8189 44.9365 58.6943 44.6816 58.2051C44.4766 57.8115 44.4916 57.2673 44.5066 56.7257C44.5202 56.236 44.5337 55.7483 44.3844 55.376C44.112 54.6964 43.4573 54.7454 42.7834 54.7959C42.1289 54.8449 41.4565 54.8954 41.0986 54.2807C40.9134 53.9625 40.9795 53.5541 41.0454 53.1478C41.1147 52.7193 41.1836 52.2933 40.9571 51.978C40.6383 51.5339 40.1508 51.4347 39.6742 51.3378C39.1621 51.2336 38.6624 51.132 38.3971 50.6081C38.1983 50.2152 38.2965 49.8464 38.3945 49.4783C38.4934 49.1072 38.5921 48.7368 38.3857 48.3438C38.0531 47.7107 37.1973 47.8781 36.3524 48.0435C35.4983 48.2106 34.6554 48.3756 34.3752 47.7091C34.1942 47.2786 34.3018 46.9259 34.4134 46.5601C34.5102 46.2427 34.61 45.9152 34.5271 45.5186C34.2813 44.3436 33.3162 44.4893 32.2994 44.6427C31.3252 44.7897 30.3036 44.9438 29.8226 43.9497C29.607 43.5041 30.0683 43.1741 30.5407 42.8362C30.7731 42.6699 31.0083 42.5018 31.167 42.3168C31.7618 41.6235 30.9318 41.2677 29.9068 40.8283C29 40.4396 27.9405 39.9856 27.5797 39.1741C27.4563 38.8967 27.761 38.9023 28.1352 38.9094C28.5647 38.9175 29.0858 38.9272 29.1568 38.5127C29.2765 37.8133 28.6112 37.7541 27.8478 37.686C27.1804 37.6267 26.4379 37.5606 26.0795 37.0541C25.6413 36.4347 25.7068 35.8362 25.7765 35.1986C25.8291 34.7186 25.8839 34.2165 25.7281 33.667C25.5521 33.0464 25.2042 32.6068 24.8697 32.1843C24.4445 31.647 24.0408 31.137 24.0394 30.317C24.0368 28.713 25.411 27.941 26.7191 27.2062Z" fill="white"/>
</g>
<defs>
<clipPath id="clip0_265_10517">
<rect width="100" height="100" fill="white"/>
</clipPath>
</defs>
</svg>
