<svg width="231" height="153" viewBox="0 0 231 153" fill="none" xmlns="http://www.w3.org/2000/svg">
<g clip-path="url(#clip0_54_18247)">
<path d="M49.8578 97.0419C75.9573 97.0419 97.1151 75.8841 97.1151 49.7846C97.1151 23.6851 75.9573 2.52734 49.8578 2.52734C23.7584 2.52734 2.60059 23.6851 2.60059 49.7846C2.60059 75.8841 23.7584 97.0419 49.8578 97.0419Z" stroke="white" stroke-width="4.17771"/>
<path fill-rule="evenodd" clip-rule="evenodd" d="M67.4665 35.4925C74.9879 41.3051 81.4328 59.7305 73.6231 71.8122C71.9252 74.4389 70.7755 75.871 68.3347 77.8267C60.3457 84.228 51.6582 83.6312 42.1905 79.7373C31.5304 75.3531 24.7486 59.5836 22.3312 50.3865C19.4876 39.5685 22.6563 30.6136 22.6563 30.6136C22.6563 30.6136 26.5939 20.1015 41.5303 24.5302C42.6962 24.8759 43.7923 25.1989 44.8258 25.5036C57.0345 29.1025 60.532 30.1335 67.4665 35.4925ZM26.7191 27.2062C27.3244 26.8662 27.9155 26.5341 28.3494 26.1312C29.2107 25.3315 29.365 26.3586 29.5434 27.5467C29.6492 28.2504 29.7634 29.0106 30.0379 29.4812C30.5421 30.3454 30.8392 30.5539 31.2089 30.8135C31.6155 31.0988 32.1099 31.4457 33.0637 32.7939C33.3445 33.1907 33.9181 33.8488 34.3752 33.6839C35.5416 33.263 34.8053 32.2383 33.9971 31.1135C33.1747 29.9686 32.2778 28.7204 33.2365 27.8996C35.3458 26.0941 37.4531 29.5646 37.9395 32.2981C38.1239 33.3346 37.3947 34.1877 36.7429 34.9502C36.0016 35.8173 35.3605 36.5673 36.2783 37.3367C36.502 37.5243 36.6155 37.4865 36.7957 37.4264C36.9155 37.3865 37.0647 37.3367 37.2952 37.3367C38.3497 37.3367 38.5152 36.4175 38.6887 35.4533C38.8565 34.5209 39.032 33.5464 40.0266 33.3209C41.1805 33.0594 40.4605 34.2338 39.5895 35.6541C38.5736 37.3112 37.3523 39.303 38.6612 39.7409C39.7005 40.0886 40.2508 39.0788 40.8124 38.0485C41.3668 37.0314 41.9321 35.9943 42.9895 36.2236C44.3673 36.5227 43.4342 37.9935 42.5379 39.4064C41.6647 40.7827 40.8266 42.1039 42.1939 42.2328C42.8378 42.2936 43.0236 42.087 43.1886 41.9039C43.3642 41.7088 43.5162 41.5401 44.1726 41.7494C45.1491 42.0606 44.7274 43.0846 44.2984 44.1265C43.8686 45.1704 43.4313 46.2322 44.3844 46.6139C44.9584 46.8438 45.1297 46.5354 45.2853 46.2556C45.4412 45.9752 45.581 45.7235 46.0941 46.0707C46.732 46.5023 46.2044 47.2157 45.6657 47.9438C45.1273 48.6717 44.5781 49.4144 45.1713 49.9051C45.7284 50.3656 46.3244 49.8602 46.9237 49.3518C47.5215 48.8451 48.1224 48.3356 48.6913 48.7778C49.356 49.2944 48.8181 50.0856 48.2594 50.9075C47.711 51.7139 47.1426 52.5499 47.6702 53.1854C48.2323 53.8625 48.8849 53.1446 49.5542 52.4083C50.2265 51.6686 50.9157 50.9104 51.5471 51.5291C52.2331 52.2014 51.5473 52.9564 50.8423 53.7328C50.1423 54.5036 49.4231 55.2954 50.0089 56.048C50.621 56.8343 51.4024 56.0639 52.1837 55.2935C52.9652 54.5231 53.7465 53.7527 54.3586 54.5391C54.9597 55.311 54.4365 55.9097 53.88 56.5464C53.3479 57.1552 52.7857 57.7988 53.1465 58.6618C53.6381 59.837 54.8303 58.9633 55.9891 58.1143C57.1318 57.2768 58.2418 56.4635 58.6144 57.6633C58.9466 58.7331 58.0192 59.2564 57.0644 59.7952C56.13 60.3223 55.1695 60.8644 55.3371 61.9475C55.5621 63.4025 57.5274 62.3828 59.2482 61.4901C60.7949 60.6876 62.1439 59.9878 61.8545 61.2789C61.6452 62.2125 60.652 62.457 59.6968 62.6922C58.6995 62.9376 57.7439 63.173 57.766 64.1718C57.7928 65.3725 59.6108 65.0531 61.2184 64.7707C62.6973 64.5109 63.9979 64.2823 63.5618 65.2973C63.2929 65.923 62.78 66.128 62.2392 66.3443C61.802 66.5191 61.3465 66.7012 60.9876 67.1189C59.4479 68.9104 62.3878 69.4435 65.6002 70.0259C69.0111 70.6444 72.7294 71.3186 71.7192 73.6143C70.8478 75.5943 70.2421 76.023 68.0592 77.113C66.3332 77.9749 65.6463 76.9943 64.8534 75.8622C64.3658 75.166 63.8381 74.4126 63.0039 73.9954C62.8547 73.9209 62.6476 73.8159 62.4166 73.6988C61.864 73.4188 61.1747 73.0693 60.8134 72.9002C60.4491 72.7297 60.0766 72.2626 59.705 71.7967C59.3407 71.3396 58.9771 70.8836 58.6229 70.7097C58.2529 70.5281 58.022 70.6765 57.8052 70.8159C57.5776 70.9622 57.3657 71.0985 57.0249 70.8318C56.7013 70.5788 56.6981 70.178 56.6947 69.7678C56.6916 69.3985 56.6886 69.0215 56.452 68.7376C56.1042 68.3204 55.5539 68.5264 54.9968 68.7349C54.4489 68.9399 53.8942 69.1475 53.5191 68.7676C53.2258 68.4709 53.247 67.9638 53.2681 67.4555C53.2889 66.9576 53.3097 66.4588 53.0347 66.1562C52.6729 65.7583 52.2384 65.828 51.81 65.8967C51.3728 65.9668 50.9418 66.036 50.6003 65.6064C50.2465 65.1609 49.8766 64.626 49.5145 64.1025C49.2581 63.7317 49.0055 63.3665 48.7655 63.0428C48.4303 62.5912 48.0408 62.5543 47.6602 62.5181C47.2655 62.4807 46.8803 62.4443 46.575 61.9477C46.3515 61.5841 46.5847 61.2012 46.8199 60.8146C47.0507 60.4355 47.2834 60.053 47.0902 59.6822C46.8353 59.1928 46.3607 59.0681 45.8858 58.9436C45.4112 58.8189 44.9365 58.6943 44.6816 58.2051C44.4766 57.8115 44.4916 57.2673 44.5066 56.7257C44.5202 56.236 44.5337 55.7483 44.3844 55.376C44.112 54.6964 43.4573 54.7454 42.7834 54.7959C42.1289 54.8449 41.4565 54.8954 41.0986 54.2807C40.9134 53.9625 40.9795 53.5541 41.0454 53.1478C41.1147 52.7193 41.1836 52.2933 40.9571 51.978C40.6383 51.5339 40.1508 51.4347 39.6742 51.3378C39.1621 51.2336 38.6624 51.132 38.3971 50.6081C38.1983 50.2152 38.2965 49.8464 38.3945 49.4783C38.4934 49.1072 38.5921 48.7368 38.3857 48.3438C38.0531 47.7107 37.1973 47.8781 36.3524 48.0435C35.4983 48.2106 34.6554 48.3756 34.3752 47.7091C34.1942 47.2786 34.3018 46.9259 34.4134 46.5601C34.5102 46.2427 34.61 45.9152 34.5271 45.5186C34.2813 44.3436 33.3162 44.4893 32.2994 44.6427C31.3252 44.7897 30.3036 44.9438 29.8226 43.9497C29.607 43.5041 30.0683 43.1741 30.5407 42.8362C30.7731 42.6699 31.0083 42.5018 31.167 42.3168C31.7618 41.6235 30.9318 41.2677 29.9068 40.8283C29 40.4396 27.9405 39.9856 27.5797 39.1741C27.4563 38.8967 27.761 38.9023 28.1352 38.9094C28.5647 38.9175 29.0858 38.9272 29.1568 38.5127C29.2765 37.8133 28.6112 37.7541 27.8478 37.686C27.1804 37.6267 26.4379 37.5606 26.0795 37.0541C25.6413 36.4347 25.7068 35.8362 25.7765 35.1986C25.8291 34.7186 25.8839 34.2165 25.7281 33.667C25.5521 33.0464 25.2042 32.6068 24.8697 32.1843C24.4445 31.647 24.0408 31.137 24.0394 30.317C24.0368 28.713 25.411 27.941 26.7191 27.2062Z" fill="white"/>
</g>
<path d="M13.9016 145.376C12.1447 145.376 10.5195 145.057 9.02614 144.42C7.55473 143.784 6.25901 142.894 5.13897 141.752C4.0409 140.61 3.18441 139.27 2.56949 137.733C1.95457 136.196 1.64711 134.516 1.64711 132.693C1.64711 130.87 1.94359 129.19 2.53654 127.653C3.15146 126.094 4.00796 124.754 5.10603 123.634C6.22606 122.492 7.53277 121.614 9.02614 120.999C10.5195 120.362 12.1447 120.043 13.9016 120.043C15.6585 120.043 17.2287 120.34 18.6123 120.933C20.0178 121.526 21.2038 122.316 22.1701 123.305C23.1364 124.271 23.8281 125.336 24.2454 126.5L20.2265 128.378C19.7653 127.148 18.9856 126.138 17.8876 125.347C16.7895 124.534 15.4608 124.128 13.9016 124.128C12.3643 124.128 11.0027 124.49 9.81676 125.215C8.6528 125.94 7.7414 126.939 7.08256 128.213C6.44568 129.487 6.12724 130.98 6.12724 132.693C6.12724 134.406 6.44568 135.91 7.08256 137.206C7.7414 138.48 8.6528 139.479 9.81676 140.204C11.0027 140.929 12.3643 141.291 13.9016 141.291C15.4608 141.291 16.7895 140.896 17.8876 140.105C18.9856 139.292 19.7653 138.271 20.2265 137.041L24.2454 138.919C23.8281 140.083 23.1364 141.159 22.1701 142.147C21.2038 143.114 20.0178 143.893 18.6123 144.486C17.2287 145.079 15.6585 145.376 13.9016 145.376ZM27.5203 144.98V127.06H31.5722V131.046L31.2428 130.453C31.66 129.113 32.3079 128.18 33.1864 127.653C34.0868 127.126 35.1629 126.862 36.4147 126.862H37.4688V130.684H35.9206C34.6907 130.684 33.7025 131.068 32.9558 131.837C32.2091 132.583 31.8357 133.637 31.8357 134.999V144.98H27.5203ZM42.0156 152.261C41.5325 152.261 41.0603 152.217 40.5991 152.129C40.1379 152.063 39.7207 151.942 39.3473 151.767V148.143C39.6328 148.209 39.9732 148.275 40.3685 148.341C40.7858 148.406 41.1701 148.439 41.5215 148.439C42.5098 148.439 43.2235 148.209 43.6627 147.748C44.1239 147.286 44.5302 146.682 44.8816 145.936L46.0675 143.169L46.0016 146.792L38.1943 127.06H42.8392L48.3076 141.62H46.6605L52.0959 127.06H56.7737L48.9664 146.792C48.5052 147.956 47.9452 148.945 47.2864 149.757C46.6275 150.57 45.8589 151.185 44.9804 151.602C44.1239 152.041 43.1357 152.261 42.0156 152.261ZM59.1435 151.569V127.06H63.1954V130.618L62.8001 129.728C63.415 128.762 64.2495 128.015 65.3037 127.488C66.3578 126.939 67.5767 126.665 68.9602 126.665C70.6513 126.665 72.1776 127.082 73.5392 127.916C74.9008 128.751 75.9769 129.871 76.7675 131.277C77.5801 132.682 77.9864 134.263 77.9864 136.02C77.9864 137.755 77.5911 139.336 76.8005 140.764C76.0099 142.191 74.9337 143.322 73.5721 144.157C72.2105 144.969 70.6622 145.376 68.9273 145.376C67.6316 145.376 66.4347 145.123 65.3366 144.618C64.2605 144.091 63.404 143.344 62.7671 142.378L63.4589 141.522V151.569H59.1435ZM68.4332 141.423C69.4214 141.423 70.2999 141.192 71.0685 140.731C71.8372 140.27 72.4301 139.633 72.8474 138.82C73.2866 138.008 73.5062 137.074 73.5062 136.02C73.5062 134.966 73.2866 134.044 72.8474 133.253C72.4301 132.44 71.8372 131.804 71.0685 131.342C70.2999 130.859 69.4214 130.618 68.4332 130.618C67.4888 130.618 66.6323 130.848 65.8637 131.309C65.117 131.771 64.524 132.419 64.0848 133.253C63.6675 134.066 63.4589 134.988 63.4589 136.02C63.4589 137.074 63.6675 138.008 64.0848 138.82C64.524 139.633 65.117 140.27 65.8637 140.731C66.6323 141.192 67.4888 141.423 68.4332 141.423ZM89.1244 145.178C87.104 145.178 85.5337 144.629 84.4137 143.531C83.3156 142.411 82.7666 140.841 82.7666 138.82V130.914H79.67V127.06H79.9995C80.8779 127.06 81.5587 126.829 82.0419 126.368C82.525 125.907 82.7666 125.237 82.7666 124.359V122.975H87.082V127.06H91.1998V130.914H87.082V138.59C87.082 139.183 87.1808 139.688 87.3785 140.105C87.5981 140.522 87.9275 140.841 88.3668 141.06C88.8279 141.28 89.4099 141.39 90.1127 141.39C90.2664 141.39 90.4421 141.379 90.6398 141.357C90.8594 141.335 91.068 141.313 91.2657 141.291V144.98C90.9582 145.024 90.6068 145.068 90.2115 145.112C89.8162 145.156 89.4538 145.178 89.1244 145.178ZM103.164 145.376C101.408 145.376 99.8044 144.969 98.3549 144.157C96.9274 143.344 95.7854 142.235 94.9289 140.83C94.0944 139.424 93.6771 137.821 93.6771 136.02C93.6771 134.219 94.0944 132.616 94.9289 131.211C95.7854 129.805 96.9274 128.696 98.3549 127.884C99.7824 127.071 101.386 126.665 103.164 126.665C104.921 126.665 106.514 127.071 107.941 127.884C109.369 128.696 110.5 129.805 111.334 131.211C112.191 132.594 112.619 134.197 112.619 136.02C112.619 137.821 112.191 139.424 111.334 140.83C110.478 142.235 109.336 143.344 107.908 144.157C106.481 144.969 104.899 145.376 103.164 145.376ZM103.164 141.423C104.131 141.423 104.976 141.192 105.701 140.731C106.448 140.27 107.03 139.633 107.447 138.82C107.886 137.986 108.106 137.052 108.106 136.02C108.106 134.966 107.886 134.044 107.447 133.253C107.03 132.44 106.448 131.804 105.701 131.342C104.976 130.859 104.131 130.618 103.164 130.618C102.176 130.618 101.309 130.859 100.562 131.342C99.8153 131.804 99.2224 132.44 98.7832 133.253C98.3659 134.044 98.1573 134.966 98.1573 136.02C98.1573 137.052 98.3659 137.986 98.7832 138.82C99.2224 139.633 99.8153 140.27 100.562 140.731C101.309 141.192 102.176 141.423 103.164 141.423ZM127.784 145.376C126.027 145.376 124.401 145.057 122.908 144.42C121.437 143.784 120.141 142.894 119.021 141.752C117.923 140.61 117.066 139.27 116.451 137.733C115.837 136.196 115.529 134.516 115.529 132.693C115.529 130.87 115.826 129.19 116.419 127.653C117.033 126.094 117.89 124.754 118.988 123.634C120.108 122.492 121.415 121.614 122.908 120.999C124.401 120.362 126.027 120.043 127.784 120.043C129.54 120.043 131.111 120.34 132.494 120.933C133.9 121.526 135.086 122.316 136.052 123.305C137.018 124.271 137.71 125.336 138.127 126.5L134.108 128.378C133.647 127.148 132.868 126.138 131.77 125.347C130.671 124.534 129.343 124.128 127.784 124.128C126.246 124.128 124.885 124.49 123.699 125.215C122.535 125.94 121.623 126.939 120.965 128.213C120.328 129.487 120.009 130.98 120.009 132.693C120.009 134.406 120.328 135.91 120.965 137.206C121.623 138.48 122.535 139.479 123.699 140.204C124.885 140.929 126.246 141.291 127.784 141.291C129.343 141.291 130.671 140.896 131.77 140.105C132.868 139.292 133.647 138.271 134.108 137.041L138.127 138.919C137.71 140.083 137.018 141.159 136.052 142.147C135.086 143.114 133.9 143.893 132.494 144.486C131.111 145.079 129.54 145.376 127.784 145.376ZM149.843 145.376C148.086 145.376 146.483 144.969 145.034 144.157C143.606 143.344 142.464 142.235 141.608 140.83C140.773 139.424 140.356 137.821 140.356 136.02C140.356 134.219 140.773 132.616 141.608 131.211C142.464 129.805 143.606 128.696 145.034 127.884C146.461 127.071 148.064 126.665 149.843 126.665C151.6 126.665 153.192 127.071 154.62 127.884C156.047 128.696 157.178 129.805 158.013 131.211C158.869 132.594 159.298 134.197 159.298 136.02C159.298 137.821 158.869 139.424 158.013 140.83C157.156 142.235 156.014 143.344 154.587 144.157C153.159 144.969 151.578 145.376 149.843 145.376ZM149.843 141.423C150.81 141.423 151.655 141.192 152.38 140.731C153.126 140.27 153.708 139.633 154.126 138.82C154.565 137.986 154.785 137.052 154.785 136.02C154.785 134.966 154.565 134.044 154.126 133.253C153.708 132.44 153.126 131.804 152.38 131.342C151.655 130.859 150.81 130.618 149.843 130.618C148.855 130.618 147.987 130.859 147.241 131.342C146.494 131.804 145.901 132.44 145.462 133.253C145.045 134.044 144.836 134.966 144.836 136.02C144.836 137.052 145.045 137.986 145.462 138.82C145.901 139.633 146.494 140.27 147.241 140.731C147.987 141.192 148.855 141.423 149.843 141.423ZM166.762 144.98L160.601 127.06H165.147L169.66 140.665L168.079 140.632L172.889 127.06H176.71L181.487 140.632L179.905 140.665L184.419 127.06H188.965L182.804 144.98H178.95L174.075 130.782H175.524L170.583 144.98H166.762ZM191.33 144.98V127.06H195.382V131.046L195.053 130.453C195.47 129.113 196.118 128.18 196.996 127.653C197.897 127.126 198.973 126.862 200.225 126.862H201.279V130.684H199.73C198.501 130.684 197.512 131.068 196.766 131.837C196.019 132.583 195.646 133.637 195.646 134.999V144.98H191.33ZM203.651 144.98V127.06H207.967V144.98H203.651ZM203.651 125.05V120.439H207.967V125.05H203.651ZM220.45 145.376C218.606 145.376 216.991 144.959 215.608 144.124C214.224 143.289 213.148 142.158 212.379 140.731C211.611 139.303 211.226 137.722 211.226 135.987C211.226 134.186 211.611 132.594 212.379 131.211C213.17 129.805 214.235 128.696 215.575 127.884C216.936 127.071 218.452 126.665 220.121 126.665C221.526 126.665 222.756 126.895 223.81 127.356C224.886 127.818 225.798 128.454 226.545 129.267C227.291 130.08 227.862 131.013 228.258 132.067C228.653 133.099 228.851 134.219 228.851 135.427C228.851 135.735 228.829 136.053 228.785 136.383C228.763 136.712 228.708 136.997 228.62 137.239H214.784V133.945H226.182L224.14 135.493C224.337 134.483 224.283 133.582 223.975 132.792C223.69 132.001 223.206 131.375 222.526 130.914C221.867 130.453 221.065 130.222 220.121 130.222C219.22 130.222 218.419 130.453 217.716 130.914C217.013 131.353 216.475 132.012 216.102 132.891C215.751 133.747 215.619 134.79 215.707 136.02C215.619 137.118 215.762 138.096 216.135 138.952C216.53 139.787 217.101 140.434 217.848 140.896C218.617 141.357 219.495 141.587 220.483 141.587C221.471 141.587 222.306 141.379 222.987 140.962C223.69 140.544 224.239 139.984 224.634 139.281L228.126 140.994C227.774 141.851 227.225 142.609 226.479 143.267C225.732 143.926 224.843 144.442 223.81 144.816C222.8 145.189 221.68 145.376 220.45 145.376Z" fill="white"/>
<defs>
<clipPath id="clip0_54_18247">
<rect width="100" height="100" fill="white"/>
</clipPath>
</defs>
</svg>
