<svg width="88" height="88" viewBox="0 0 88 88" fill="none" xmlns="http://www.w3.org/2000/svg">
<path d="M38.3677 32.0687C39.2001 31.4087 40.1901 30.9284 41.2497 30.624V40.8724C40.2037 40.5859 39.2244 40.0963 38.3677 39.4314C36.9231 38.2837 36.3657 36.9344 36.3657 35.75C36.3657 34.5657 36.9231 33.2164 38.3677 32.0687ZM46.7497 57.4274V47.0727C48.0221 47.3844 49.1844 47.9087 50.1267 48.6164C51.6924 49.7897 52.2497 51.1317 52.2497 52.25C52.2497 53.3684 51.6924 54.7104 50.1267 55.8837C49.1161 56.6189 47.9675 57.1464 46.7497 57.4274Z" fill="#007BFF"/>
<path fill-rule="evenodd" clip-rule="evenodd" d="M44 8.25C24.255 8.25 8.25 24.255 8.25 44C8.25 63.745 24.255 79.75 44 79.75C63.745 79.75 79.75 63.745 79.75 44C79.75 24.255 63.745 8.25 44 8.25ZM46.75 22C46.75 21.2707 46.4603 20.5712 45.9445 20.0555C45.4288 19.5397 44.7293 19.25 44 19.25C43.2707 19.25 42.5712 19.5397 42.0555 20.0555C41.5397 20.5712 41.25 21.2707 41.25 22V24.992C38.9505 25.3789 36.7833 26.3315 34.9433 27.764C32.3327 29.8393 30.866 32.714 30.866 35.75C30.866 38.7897 32.3327 41.6607 34.947 43.736C36.7877 45.2027 38.9877 46.1083 41.25 46.508V57.4273C40.032 57.145 38.8834 56.62 37.873 55.8837L34.65 53.4637C34.3611 53.247 34.0323 53.0893 33.6825 52.9997C33.3327 52.9101 32.9686 52.8902 32.6111 52.9413C31.8891 53.0444 31.2376 53.4302 30.8 54.0137C30.3624 54.5971 30.1745 55.3306 30.2776 56.0526C30.3808 56.7746 30.7665 57.4261 31.35 57.8637L34.573 60.2837C36.5273 61.7503 38.8593 62.6487 41.25 63.0337V66C41.25 66.7293 41.5397 67.4288 42.0555 67.9445C42.5712 68.4603 43.2707 68.75 44 68.75C44.7293 68.75 45.4288 68.4603 45.9445 67.9445C46.4603 67.4288 46.75 66.7293 46.75 66V63.03C49.1648 62.6671 51.4557 61.7248 53.427 60.2837C56.1587 58.234 57.75 55.3557 57.75 52.25C57.75 49.1443 56.1587 46.266 53.427 44.2163C51.4562 42.7736 49.1652 41.83 46.75 41.4663V30.6313C47.8133 30.932 48.7997 31.4123 49.632 32.0723L51.1537 33.2823C51.725 33.736 52.4531 33.9441 53.1779 33.8609C53.9027 33.7777 54.5647 33.41 55.0183 32.8387C55.472 32.2673 55.6801 31.5392 55.5969 30.8144C55.5137 30.0897 55.146 29.4277 54.5747 28.974L53.053 27.764C51.2137 26.3334 49.0479 25.3821 46.75 24.9957V22Z" fill="#007BFF"/>
</svg>
