<svg width="88" height="88" viewBox="0 0 88 88" fill="none" xmlns="http://www.w3.org/2000/svg">
<path d="M8.25 8.25C7.52065 8.25 6.82118 8.53973 6.30546 9.05546C5.78973 9.57118 5.5 10.2707 5.5 11C5.5 11.7293 5.78973 12.4288 6.30546 12.9445C6.82118 13.4603 7.52065 13.75 8.25 13.75H13.332C13.9553 13.75 14.498 14.168 14.6593 14.7693L24.0387 49.94C21.0928 50.7076 18.4846 52.4306 16.6228 54.8391C14.761 57.2477 13.7506 60.2057 13.75 63.25C13.75 64.768 14.982 66 16.5 66H74.25C74.9793 66 75.6788 65.7103 76.1945 65.1945C76.7103 64.6788 77 63.9793 77 63.25C77 62.5207 76.7103 61.8212 76.1945 61.3055C75.6788 60.7897 74.9793 60.5 74.25 60.5H19.7193C20.2882 58.8911 21.3419 57.4982 22.7354 56.5132C24.1289 55.5282 25.7935 54.9995 27.5 55H68.6327C69.1478 55 69.6526 54.8553 70.0896 54.5824C70.5265 54.3095 70.878 53.9193 71.104 53.4563C75.2902 44.8657 78.9155 36.0129 81.9573 26.9537C82.0775 26.5953 82.1225 26.216 82.0895 25.8394C82.0566 25.4629 81.9463 25.0972 81.7657 24.7651C81.585 24.4331 81.3379 24.1419 81.0396 23.9096C80.7414 23.6774 80.3985 23.5091 80.0323 23.4153C60.6936 18.4842 40.7808 16.1695 20.8267 16.533L19.976 13.354C19.5857 11.89 18.7228 10.596 17.5213 9.67303C16.3198 8.75003 14.8471 8.24978 13.332 8.25H8.25ZM13.75 74.25C13.75 72.7913 14.3295 71.3924 15.3609 70.3609C16.3924 69.3295 17.7913 68.75 19.25 68.75C20.7087 68.75 22.1076 69.3295 23.1391 70.3609C24.1705 71.3924 24.75 72.7913 24.75 74.25C24.75 75.7087 24.1705 77.1076 23.1391 78.1391C22.1076 79.1705 20.7087 79.75 19.25 79.75C17.7913 79.75 16.3924 79.1705 15.3609 78.1391C14.3295 77.1076 13.75 75.7087 13.75 74.25ZM60.5 74.25C60.5 72.7913 61.0795 71.3924 62.1109 70.3609C63.1424 69.3295 64.5413 68.75 66 68.75C67.4587 68.75 68.8576 69.3295 69.8891 70.3609C70.9205 71.3924 71.5 72.7913 71.5 74.25C71.5 75.7087 70.9205 77.1076 69.8891 78.1391C68.8576 79.1705 67.4587 79.75 66 79.75C64.5413 79.75 63.1424 79.1705 62.1109 78.1391C61.0795 77.1076 60.5 75.7087 60.5 74.25Z" fill="#61D748"/>
</svg>
