<svg width="88" height="89" viewBox="0 0 88 89" fill="none" xmlns="http://www.w3.org/2000/svg">
<path d="M42.8999 11.1017C43.2469 10.9502 43.6214 10.8721 43.9999 10.8721C44.3785 10.8721 44.753 10.9502 45.0999 11.1017C58.6595 17.0285 71.5936 24.2939 83.7099 32.79C84.1369 33.0894 84.47 33.5041 84.6702 33.9857C84.8705 34.4672 84.9296 34.9958 84.8408 35.5097C84.752 36.0236 84.5189 36.5017 84.1687 36.8882C83.8185 37.2746 83.3657 37.5535 82.8629 37.6923C70.284 41.1665 58.1124 45.9751 46.5556 52.0363L46.5446 52.0437L45.2979 52.7037C44.8991 52.9168 44.4539 53.0283 44.0018 53.0283C43.5496 53.0283 43.1044 52.9168 42.7056 52.7037C37.7508 50.0557 32.6769 47.6368 27.4999 45.4547V44.6333C27.4999 44.153 27.7456 43.724 28.1306 43.493C33.665 40.1391 39.3586 37.0555 45.1916 34.253C45.849 33.9369 46.3539 33.3727 46.5953 32.6844C46.8366 31.996 46.7947 31.24 46.4786 30.5827C46.1626 29.9253 45.5983 29.4204 44.91 29.179C44.2217 28.9376 43.4657 28.9796 42.8083 29.2957C36.8162 32.1751 30.9671 35.3431 25.2816 38.7887C24.4727 39.2793 23.7749 39.9331 23.2327 40.7083C22.6904 41.4836 22.3155 42.3632 22.1319 43.2913C16.563 41.1485 10.8925 39.2799 5.1406 37.6923C4.63789 37.5535 4.18501 37.2746 3.8348 36.8882C3.4846 36.5017 3.2515 36.0236 3.16271 35.5097C3.07392 34.9958 3.13309 34.4672 3.33333 33.9857C3.53357 33.5041 3.86661 33.0894 4.2936 32.79C16.4088 24.2942 29.3417 17.0287 42.8999 11.1017Z" fill="#36C9F7"/>
<path d="M47.8866 57.5513C56.8929 52.7396 66.2973 48.7134 75.9953 45.5173C76.4866 50.702 76.802 55.9417 76.9303 61.229C76.9438 61.7823 76.79 62.3267 76.4891 62.7912C76.1881 63.2556 75.7541 63.6185 75.2436 63.8323C64.8497 68.1735 54.8977 73.505 45.5253 79.753C45.0736 80.0541 44.5428 80.2148 44 80.2148C43.4571 80.2148 42.9263 80.0541 42.4746 79.753C33.1034 73.5052 23.1526 68.1737 12.76 63.8323C12.2488 63.6191 11.814 63.2565 11.5124 62.792C11.2108 62.3274 11.0565 61.7827 11.0696 61.229C11.198 55.9417 11.5133 50.7057 12.0046 45.5137C15.3719 46.6236 18.7052 47.8341 22 49.1437V53.8003C21.2077 54.2568 20.5418 54.9036 20.0624 55.6821C19.583 56.4607 19.3052 57.3465 19.2542 58.2594C19.2033 59.1723 19.3807 60.0835 19.7705 60.9106C20.1603 61.7377 20.7501 62.4545 21.4866 62.9963C21.1566 64.3897 20.6726 65.7573 20.031 67.0663C21.6883 67.8473 23.3346 68.6577 24.9663 69.49C25.8863 67.618 26.5651 65.6368 26.9866 63.594C27.9139 63.1817 28.709 62.521 29.284 61.6848C29.859 60.8487 30.1914 59.8698 30.2446 58.8564C30.2977 57.843 30.0694 56.8347 29.585 55.943C29.1006 55.0513 28.379 54.311 27.5 53.804V51.439C31.7831 53.3113 35.9908 55.3515 40.1133 57.555C41.3092 58.1937 42.6441 58.5279 44 58.5279C45.3558 58.5279 46.6907 58.1937 47.8866 57.555V57.5513Z" fill="#36C9F7"/>
<path d="M16.3609 72.1777C17.9009 70.6414 19.1219 68.9144 20.0275 67.0664C21.6885 67.8474 23.3349 68.6577 24.9665 69.4901C23.7667 71.9269 22.1736 74.1493 20.2512 76.0681C19.9994 76.3383 19.6958 76.555 19.3585 76.7053C19.0212 76.8556 18.657 76.9364 18.2878 76.9429C17.9185 76.9494 17.5518 76.8815 17.2093 76.7432C16.8669 76.6049 16.5558 76.399 16.2947 76.1379C16.0336 75.8767 15.8277 75.5657 15.6894 75.2233C15.5511 74.8808 15.4832 74.5141 15.4897 74.1448C15.4962 73.7756 15.577 73.4114 15.7273 73.0741C15.8776 72.7368 16.0943 72.4332 16.3645 72.1814L16.3609 72.1777Z" fill="#36C9F7"/>
</svg>
