<svg width="199" height="181" viewBox="0 0 199 181" fill="none" xmlns="http://www.w3.org/2000/svg">
<circle cx="99.5" cy="50.5906" r="50" fill="white"/>
<path d="M87.1876 25.5911L128.071 25.5911V39.6888H82.9583L87.1876 25.5911Z" fill="#3480F8"/>
<path d="M82.9595 43.2615H116.794V57.3592H78.7302L82.9595 43.2615Z" fill="#3480F8"/>
<path d="M78.8174 60.9292H106.925V75.0269H74.5L78.8174 60.9292Z" fill="#3480F8"/>
<path d="M3.17484 160.591V129.592H9.17175V160.591H3.17484ZM7.58433 147.891V142.556H23.194V147.891H7.58433ZM7.58433 134.883V129.592H23.9436V134.883H7.58433ZM28.0499 160.591V139.293H33.8704V160.591H28.0499ZM30.9602 135.853C30.0195 135.853 29.2405 135.545 28.6231 134.927C28.0058 134.281 27.6971 133.487 27.6971 132.546C27.6971 131.635 28.0058 130.856 28.6231 130.209C29.2405 129.562 30.0195 129.239 30.9602 129.239C31.9303 129.239 32.7093 129.562 33.2972 130.209C33.9145 130.856 34.2232 131.635 34.2232 132.546C34.2232 133.487 33.9145 134.281 33.2972 134.927C32.7093 135.545 31.9303 135.853 30.9602 135.853ZM53.3184 160.591V148.376C53.3184 147.112 52.9215 146.083 52.1278 145.29C51.3341 144.496 50.3052 144.099 49.0412 144.099C48.2181 144.099 47.4832 144.275 46.8364 144.628C46.1897 144.981 45.6753 145.481 45.2931 146.127C44.9403 146.774 44.764 147.524 44.764 148.376L42.5151 147.23C42.5151 145.554 42.8679 144.099 43.5734 142.864C44.3083 141.6 45.3078 140.616 46.5719 139.91C47.8653 139.205 49.3204 138.852 50.9373 138.852C52.4953 138.852 53.8916 139.249 55.1263 140.042C56.3609 140.807 57.331 141.821 58.0366 143.085C58.7421 144.32 59.0948 145.657 59.0948 147.098V160.591H53.3184ZM38.9875 160.591V139.293H44.764V160.591H38.9875ZM72.6551 161.032C70.7149 161.032 68.9658 160.546 67.4078 159.576C65.8497 158.606 64.6298 157.283 63.7479 155.608C62.866 153.932 62.425 152.051 62.425 149.964C62.425 147.847 62.866 145.951 63.7479 144.275C64.6298 142.6 65.8497 141.277 67.4078 140.307C68.9658 139.337 70.7149 138.852 72.6551 138.852C74.1837 138.852 75.5506 139.16 76.7559 139.778C77.9612 140.395 78.9166 141.262 79.6221 142.379C80.357 143.467 80.7538 144.702 80.8126 146.083V153.756C80.7538 155.167 80.357 156.416 79.6221 157.504C78.9166 158.592 77.9612 159.459 76.7559 160.106C75.5506 160.723 74.1837 161.032 72.6551 161.032ZM73.7133 155.696C75.3302 155.696 76.6383 155.167 77.6378 154.109C78.6373 153.021 79.137 151.625 79.137 149.92C79.137 148.803 78.9019 147.818 78.4315 146.965C77.9906 146.083 77.3585 145.407 76.5354 144.937C75.7417 144.437 74.801 144.187 73.7133 144.187C72.6551 144.187 71.7144 144.437 70.8913 144.937C70.0976 145.407 69.4655 146.083 68.9952 146.965C68.5542 147.818 68.3338 148.803 68.3338 149.92C68.3338 151.066 68.5542 152.08 68.9952 152.962C69.4655 153.815 70.0976 154.491 70.8913 154.991C71.7144 155.461 72.6551 155.696 73.7133 155.696ZM78.8284 160.591V154.858L79.7544 149.655L78.8284 144.54V139.293H84.5607V160.591H78.8284ZM104.002 160.591V148.376C104.002 147.112 103.605 146.083 102.811 145.29C102.017 144.496 100.989 144.099 99.7245 144.099C98.9014 144.099 98.1665 144.275 97.5198 144.628C96.8731 144.981 96.3586 145.481 95.9765 146.127C95.6237 146.774 95.4473 147.524 95.4473 148.376L93.1985 147.23C93.1985 145.554 93.5513 144.099 94.2568 142.864C94.9917 141.6 95.9912 140.616 97.2552 139.91C98.5487 139.205 100.004 138.852 101.621 138.852C103.179 138.852 104.575 139.249 105.81 140.042C107.044 140.807 108.014 141.821 108.72 143.085C109.425 144.32 109.778 145.657 109.778 147.098V160.591H104.002ZM89.6709 160.591V139.293H95.4473V160.591H89.6709ZM124.485 161.032C122.31 161.032 120.355 160.546 118.62 159.576C116.886 158.606 115.519 157.283 114.519 155.608C113.52 153.932 113.02 152.051 113.02 149.964C113.02 147.847 113.52 145.951 114.519 144.275C115.519 142.6 116.886 141.277 118.62 140.307C120.384 139.307 122.339 138.808 124.485 138.808C126.161 138.808 127.704 139.116 129.115 139.734C130.526 140.351 131.746 141.233 132.775 142.379L129.071 146.127C128.512 145.51 127.836 145.04 127.042 144.716C126.278 144.393 125.426 144.231 124.485 144.231C123.427 144.231 122.471 144.481 121.619 144.981C120.796 145.451 120.134 146.113 119.634 146.965C119.164 147.788 118.929 148.773 118.929 149.92C118.929 151.037 119.164 152.036 119.634 152.918C120.134 153.771 120.796 154.447 121.619 154.946C122.471 155.417 123.427 155.652 124.485 155.652C125.455 155.652 126.322 155.49 127.087 155.167C127.88 154.814 128.556 154.314 129.115 153.668L132.863 157.416C131.775 158.592 130.526 159.488 129.115 160.106C127.704 160.723 126.161 161.032 124.485 161.032ZM145.847 161.032C143.612 161.032 141.628 160.561 139.894 159.62C138.159 158.65 136.778 157.328 135.749 155.652C134.749 153.976 134.25 152.066 134.25 149.92C134.25 147.803 134.735 145.922 135.705 144.275C136.704 142.6 138.056 141.277 139.761 140.307C141.466 139.307 143.362 138.808 145.45 138.808C147.507 138.808 149.315 139.278 150.873 140.219C152.461 141.13 153.695 142.394 154.577 144.011C155.489 145.598 155.944 147.406 155.944 149.435C155.944 149.817 155.915 150.214 155.856 150.625C155.827 151.007 155.753 151.448 155.636 151.948L137.733 151.992V147.671L152.946 147.627L150.609 149.435C150.55 148.17 150.315 147.112 149.903 146.26C149.521 145.407 148.948 144.76 148.184 144.32C147.449 143.849 146.537 143.614 145.45 143.614C144.303 143.614 143.304 143.879 142.451 144.408C141.599 144.907 140.937 145.628 140.467 146.568C140.026 147.48 139.805 148.567 139.805 149.831C139.805 151.125 140.041 152.257 140.511 153.227C141.011 154.167 141.716 154.902 142.628 155.431C143.539 155.931 144.597 156.181 145.802 156.181C146.89 156.181 147.875 156.005 148.757 155.652C149.639 155.27 150.403 154.711 151.05 153.976L154.445 157.372C153.416 158.577 152.152 159.488 150.653 160.106C149.183 160.723 147.581 161.032 145.847 161.032ZM159.517 160.591V139.293H165.293V160.591H159.517ZM165.293 148.817L163.044 147.318C163.309 144.702 164.073 142.644 165.337 141.145C166.601 139.616 168.424 138.852 170.805 138.852C171.834 138.852 172.76 139.028 173.583 139.381C174.406 139.704 175.156 140.248 175.832 141.012L172.216 145.157C171.893 144.805 171.496 144.54 171.025 144.364C170.584 144.187 170.07 144.099 169.482 144.099C168.247 144.099 167.233 144.496 166.44 145.29C165.675 146.054 165.293 147.23 165.293 148.817ZM184.348 160.767L175.441 139.293H181.702L187.611 155.696H185.494L191.624 139.293H197.929L188.449 160.723L184.348 160.767ZM178.439 169.498L184.921 155.784L188.449 160.723L184.568 169.498H178.439Z" fill="white"/>
</svg>
