<svg width="67" height="76" viewBox="0 0 67 76" fill="none" xmlns="http://www.w3.org/2000/svg">
<path d="M66.2159 13.0508C66.195 13.1135 66.1742 13.1763 66.1533 13.239C66.1533 13.3854 66.0906 13.4273 65.9653 13.4482C65.3388 13.5946 64.7332 13.8037 64.1903 14.1592C63.2087 14.8076 62.7284 15.7487 62.5405 16.878C62.3734 17.9028 62.4778 18.9066 62.4987 19.9314C62.5405 21.2281 62.5405 22.5247 62.5613 23.8214C62.5822 25.6409 62.5405 27.4603 62.6031 29.2589C62.624 29.9072 62.9372 30.5556 63.1043 31.2248C63.2505 31.8313 63.4384 32.4587 63.5011 33.0861C63.6055 33.8809 63.3967 34.6547 63.0208 35.3866C62.979 35.4703 62.8328 35.5749 62.7284 35.5749C62.1854 35.6167 61.6634 35.5539 61.1622 35.3657C60.7236 35.1775 60.6192 34.7801 60.6192 34.3828C60.6192 33.7972 60.6818 33.1907 60.7654 32.626C60.8071 32.396 60.9116 32.1659 61.0577 31.9777C61.4963 31.413 61.6216 30.7856 61.6007 30.0955C61.5798 29.3008 61.6007 28.5269 61.6007 27.7322C61.6007 25.1807 61.6216 22.6293 61.6216 20.0778C61.6216 18.5929 61.6007 17.1081 61.6007 15.6441C61.6007 15.5604 61.6007 15.4977 61.5798 15.3931C61.4336 15.435 61.3083 15.4768 61.183 15.5395C59.1573 16.3133 57.1525 17.1081 55.106 17.84C54.1662 18.1747 53.8321 18.8439 53.7486 19.7014C53.665 20.6634 53.6441 21.6254 53.6441 22.5875C53.6233 24.0096 53.6441 25.4317 53.6441 26.8538C53.6441 26.9584 53.6441 27.063 53.6441 27.2094C40.4458 20.9353 27.2684 20.9562 14.0701 27.1885C14.0493 27.0839 14.0493 27.0212 14.0493 26.9584C14.0493 25.118 14.0284 23.2567 14.0284 21.4163C14.0284 20.8307 14.0701 20.2451 14.0284 19.6595C13.9657 18.8857 13.5689 18.3001 12.8798 17.9446C12.2742 17.6518 11.6268 17.4218 10.9794 17.1917C7.65894 15.916 4.33849 14.6612 0.997145 13.3854C0.955378 13.3645 0.913612 13.3645 0.830078 13.3227C0.955378 13.2599 1.01803 13.239 1.10156 13.1972C6.55212 10.834 12.128 8.80532 17.6621 6.67213C22.3608 4.87355 27.0805 3.1168 31.7792 1.33913C32.5102 1.06725 33.262 0.87903 34.0346 0.920858C34.4523 0.941772 34.9117 1.00451 35.3085 1.15091C40.0282 2.92857 44.7478 4.70624 49.4675 6.50482C54.8763 8.57527 60.2642 10.6457 65.6521 12.7371C65.84 12.7998 66.0071 12.9462 66.1742 13.0508C66.2159 13.009 66.2159 13.0299 66.2159 13.0508Z" fill="white"/>
<path d="M33.5961 76C33.2829 75.5399 32.9905 75.1007 32.6981 74.6615C29.8371 70.416 26.9761 66.1496 24.1151 61.9041C23.9689 61.695 23.7809 61.5277 23.6139 61.3395C23.2797 60.963 22.9665 60.5447 22.6115 60.1892C22.0267 59.5827 21.4211 58.9762 20.8155 58.3697C19.7713 57.3449 18.7272 56.3411 17.683 55.3372C17.4742 55.149 17.2027 55.0026 16.973 54.8353C16.8894 54.7725 16.785 54.7516 16.7224 54.6889C15.2187 53.5805 13.6734 52.5348 12.1907 51.3636C11.2509 50.6316 10.3738 49.7951 9.66377 48.8121C9.14169 48.0592 9.09992 47.2227 9.39229 46.3861C9.74731 45.3195 10.1441 44.2739 10.5618 43.2282C11.7312 40.2584 12.9216 37.3096 14.1119 34.3398C14.4043 33.6288 14.6967 32.9386 15.0099 32.2485C15.3649 31.4747 15.8661 30.8263 16.4926 30.2617C17.0147 29.8016 17.6412 29.5506 18.2886 29.3624C21.9432 28.3376 25.5978 27.3128 29.2733 26.309C29.8998 26.1417 30.5054 25.9744 31.1736 25.7861C31.1319 26.058 31.111 26.309 31.0692 26.539C30.5263 29.7597 30.0251 32.9805 29.4612 36.1803C29.0227 38.6272 28.5215 41.0532 28.062 43.5001C27.8741 44.5039 27.6652 45.5078 27.4982 46.5325C27.3938 47.1809 27.5817 47.8083 28.0203 48.3102C29.1897 49.6487 30.3592 50.9453 31.5287 52.2629C32.0925 52.8903 32.6564 53.5177 33.2202 54.1451C33.262 54.2079 33.3038 54.2706 33.3873 54.3334C33.5126 54.187 33.617 54.0824 33.7005 53.9569C35.5174 51.761 37.3342 49.565 39.1511 47.3691C39.2346 47.2645 39.2764 47.0972 39.2555 46.9717C38.9005 44.8804 38.5455 42.789 38.1696 40.6767C37.7519 38.3135 37.3551 35.9711 36.9375 33.6079C36.5824 31.5374 36.2274 29.4669 35.8724 27.3965C35.8306 27.1246 35.768 26.8527 35.7262 26.539C36.2065 26.5599 36.666 26.5599 37.1254 26.6018C38.4619 26.7482 39.7985 26.8736 41.1141 27.1037C44.2675 27.6265 47.2956 28.5886 50.1984 29.948C50.804 30.2408 51.2426 30.7218 51.4932 31.3492C52.9341 34.8836 54.3542 38.4389 55.7743 41.9734C55.9204 42.3498 56.0666 42.7681 56.2337 43.1445C56.5052 43.6883 56.5261 44.2739 56.4425 44.8594C56.4008 45.0895 56.4843 45.2359 56.6514 45.4032C57.0273 45.8006 57.4241 46.177 57.7164 46.6162C58.2803 47.4109 58.1758 48.1638 57.5285 48.8749C57.3823 49.0213 57.2361 49.1677 57.069 49.2932C56.5052 49.7951 55.9413 50.297 55.3775 50.8199C54.8554 51.3009 54.3124 51.6564 53.5606 51.51C53.3518 51.4682 53.143 51.4054 52.8924 51.3218C52.8088 51.4891 52.7044 51.6982 52.6209 51.8865C52.5165 52.1374 52.412 52.3675 52.2867 52.6184C52.057 53.0995 51.7647 53.5177 51.3679 53.8942C47.755 57.2404 44.2675 60.733 41.135 64.5602C38.274 68.0528 35.7262 71.7545 33.6797 75.7699C33.6797 75.8536 33.6379 75.8954 33.5961 76Z" fill="white"/>
</svg>
