<svg width="259" height="132" viewBox="0 0 259 132" fill="none" xmlns="http://www.w3.org/2000/svg">
<path d="M67.2159 13.0508C67.195 13.1135 67.1742 13.1763 67.1533 13.239C67.1533 13.3854 67.0906 13.4273 66.9653 13.4482C66.3388 13.5946 65.7332 13.8037 65.1903 14.1592C64.2087 14.8076 63.7284 15.7487 63.5405 16.878C63.3734 17.9028 63.4778 18.9066 63.4987 19.9314C63.5405 21.2281 63.5405 22.5247 63.5613 23.8214C63.5822 25.6409 63.5405 27.4603 63.6031 29.2589C63.624 29.9072 63.9372 30.5556 64.1043 31.2248C64.2505 31.8313 64.4384 32.4587 64.5011 33.0861C64.6055 33.8809 64.3967 34.6547 64.0208 35.3866C63.979 35.4703 63.8328 35.5749 63.7284 35.5749C63.1854 35.6167 62.6634 35.5539 62.1622 35.3657C61.7236 35.1775 61.6192 34.7801 61.6192 34.3828C61.6192 33.7972 61.6818 33.1907 61.7654 32.626C61.8071 32.396 61.9116 32.1659 62.0577 31.9777C62.4963 31.413 62.6216 30.7856 62.6007 30.0955C62.5798 29.3008 62.6007 28.5269 62.6007 27.7322C62.6007 25.1807 62.6216 22.6293 62.6216 20.0778C62.6216 18.5929 62.6007 17.1081 62.6007 15.6441C62.6007 15.5604 62.6007 15.4977 62.5798 15.3931C62.4336 15.435 62.3083 15.4768 62.183 15.5395C60.1573 16.3133 58.1525 17.1081 56.106 17.84C55.1662 18.1747 54.8321 18.8439 54.7486 19.7014C54.665 20.6634 54.6441 21.6254 54.6441 22.5875C54.6233 24.0096 54.6441 25.4317 54.6441 26.8538C54.6441 26.9584 54.6441 27.063 54.6441 27.2094C41.4458 20.9353 28.2684 20.9562 15.0701 27.1885C15.0493 27.0839 15.0493 27.0212 15.0493 26.9584C15.0493 25.118 15.0284 23.2567 15.0284 21.4163C15.0284 20.8307 15.0701 20.2451 15.0284 19.6595C14.9657 18.8857 14.5689 18.3001 13.8798 17.9446C13.2742 17.6518 12.6268 17.4218 11.9794 17.1917C8.65894 15.916 5.33849 14.6612 1.99714 13.3854C1.95538 13.3645 1.91361 13.3645 1.83008 13.3227C1.95538 13.2599 2.01803 13.239 2.10156 13.1972C7.55212 10.834 13.128 8.80532 18.6621 6.67213C23.3608 4.87355 28.0805 3.1168 32.7792 1.33913C33.5102 1.06725 34.262 0.87903 35.0346 0.920858C35.4523 0.941772 35.9117 1.00451 36.3085 1.15091C41.0282 2.92857 45.7478 4.70624 50.4675 6.50482C55.8763 8.57527 61.2642 10.6457 66.6521 12.7371C66.84 12.7998 67.0071 12.9462 67.1742 13.0508C67.2159 13.009 67.2159 13.0299 67.2159 13.0508Z" fill="white"/>
<path d="M34.5961 76C34.2829 75.5399 33.9905 75.1007 33.6981 74.6615C30.8371 70.416 27.9761 66.1496 25.1151 61.9041C24.9689 61.695 24.7809 61.5277 24.6139 61.3395C24.2797 60.963 23.9665 60.5447 23.6115 60.1892C23.0267 59.5827 22.4211 58.9762 21.8155 58.3697C20.7713 57.3449 19.7272 56.3411 18.683 55.3372C18.4742 55.149 18.2027 55.0026 17.973 54.8353C17.8894 54.7725 17.785 54.7516 17.7224 54.6889C16.2187 53.5805 14.6734 52.5348 13.1907 51.3636C12.2509 50.6316 11.3738 49.7951 10.6638 48.8121C10.1417 48.0592 10.0999 47.2227 10.3923 46.3861C10.7473 45.3195 11.1441 44.2739 11.5618 43.2282C12.7312 40.2584 13.9216 37.3096 15.1119 34.3398C15.4043 33.6288 15.6967 32.9386 16.0099 32.2485C16.3649 31.4747 16.8661 30.8263 17.4926 30.2617C18.0147 29.8016 18.6412 29.5506 19.2886 29.3624C22.9432 28.3376 26.5978 27.3128 30.2733 26.309C30.8998 26.1417 31.5054 25.9744 32.1736 25.7861C32.1319 26.058 32.111 26.309 32.0692 26.539C31.5263 29.7597 31.0251 32.9805 30.4612 36.1803C30.0227 38.6272 29.5215 41.0532 29.062 43.5001C28.8741 44.5039 28.6652 45.5078 28.4982 46.5325C28.3938 47.1809 28.5817 47.8083 29.0203 48.3102C30.1897 49.6487 31.3592 50.9453 32.5287 52.2629C33.0925 52.8903 33.6564 53.5177 34.2202 54.1451C34.262 54.2079 34.3038 54.2706 34.3873 54.3334C34.5126 54.187 34.617 54.0824 34.7005 53.9569C36.5174 51.761 38.3342 49.565 40.1511 47.3691C40.2346 47.2645 40.2764 47.0972 40.2555 46.9717C39.9005 44.8804 39.5455 42.789 39.1696 40.6767C38.7519 38.3135 38.3551 35.9711 37.9375 33.6079C37.5824 31.5374 37.2274 29.4669 36.8724 27.3965C36.8306 27.1246 36.768 26.8527 36.7262 26.539C37.2065 26.5599 37.666 26.5599 38.1254 26.6018C39.4619 26.7482 40.7985 26.8736 42.1141 27.1037C45.2675 27.6265 48.2956 28.5886 51.1984 29.948C51.804 30.2408 52.2426 30.7218 52.4932 31.3492C53.9341 34.8836 55.3542 38.4389 56.7743 41.9734C56.9204 42.3498 57.0666 42.7681 57.2337 43.1445C57.5052 43.6883 57.5261 44.2739 57.4425 44.8594C57.4008 45.0895 57.4843 45.2359 57.6514 45.4032C58.0273 45.8006 58.4241 46.177 58.7164 46.6162C59.2803 47.4109 59.1758 48.1638 58.5285 48.8749C58.3823 49.0213 58.2361 49.1677 58.069 49.2932C57.5052 49.7951 56.9413 50.297 56.3775 50.8199C55.8554 51.3009 55.3124 51.6564 54.5606 51.51C54.3518 51.4682 54.143 51.4054 53.8924 51.3218C53.8088 51.4891 53.7044 51.6982 53.6209 51.8865C53.5165 52.1374 53.412 52.3675 53.2867 52.6184C53.057 53.0995 52.7647 53.5177 52.3679 53.8942C48.755 57.2404 45.2675 60.733 42.135 64.5602C39.274 68.0528 36.7262 71.7545 34.6797 75.7699C34.6797 75.8536 34.6379 75.8954 34.5961 76Z" fill="white"/>
<path d="M12.7429 118.981C6.48172 118.981 2.09538 115.315 1.83008 110.674H8.19735C8.42728 112.569 10.1783 114.021 12.7075 114.021C15.1837 114.021 16.5456 112.888 16.5456 111.453C16.5456 106.99 2.43143 109.824 2.43143 100.666C2.43143 96.5038 6.12799 93.1738 12.3007 93.1738C18.3496 93.1738 21.9931 96.4684 22.3645 101.446H16.2979C16.1211 99.4972 14.5823 98.1865 12.1061 98.1865C9.7538 98.1865 8.55109 99.143 8.55109 100.578C8.55109 105.148 22.3999 102.296 22.5768 111.471C22.5591 115.722 18.8272 118.981 12.7429 118.981Z" fill="white"/>
<path d="M38.4949 93.1382C44.7207 93.1382 48.9125 96.3973 50.2744 101.994H43.4649C42.7398 99.869 41.0772 98.5228 38.4596 98.5228C34.9399 98.5228 32.5875 101.18 32.5875 106.068C32.5875 110.939 34.9399 113.561 38.4596 113.561C41.0772 113.561 42.7044 112.392 43.4649 110.125H50.2744C48.9125 115.456 44.7207 118.981 38.4949 118.981C31.2787 118.981 26.1318 113.915 26.1318 106.068C26.1318 98.204 31.2787 93.1382 38.4949 93.1382Z" fill="white"/>
<path d="M54.9081 85.1504H61.2223V96.6635C62.8494 94.538 65.644 93.1919 68.9868 93.1919C74.6289 93.1919 78.7322 96.9824 78.7322 103.89V118.574H72.4003V104.758C72.4003 100.737 70.1895 98.5765 66.8467 98.5765C63.4154 98.5765 61.2046 100.737 61.2046 104.758V118.574H54.8904V85.1504H54.9081Z" fill="white"/>
<path d="M95.8182 118.981C88.602 118.981 83.1367 113.915 83.1367 106.069C83.1367 98.1689 88.7788 93.1562 95.9951 93.1562C103.211 93.1562 108.853 98.1689 108.853 106.069C108.853 113.915 103.07 118.981 95.8182 118.981ZM95.8182 113.473C99.161 113.473 102.362 111.028 102.362 106.069C102.362 101.056 99.2494 98.6649 95.9066 98.6649C92.5638 98.6649 89.5394 101.056 89.5394 106.069C89.5394 111.028 92.4223 113.473 95.8182 113.473Z" fill="white"/>
<path d="M124.577 118.981C117.36 118.981 111.895 113.915 111.895 106.069C111.895 98.1689 117.537 93.1562 124.753 93.1562C131.969 93.1562 137.612 98.1689 137.612 106.069C137.612 113.915 131.846 118.981 124.577 118.981ZM124.577 113.473C127.919 113.473 131.121 111.028 131.121 106.069C131.121 101.056 128.008 98.6649 124.665 98.6649C121.322 98.6649 118.298 101.056 118.298 106.069C118.315 111.028 121.198 113.473 124.577 113.473Z" fill="white"/>
<path d="M142.263 85.1504H148.577V118.574H142.263V85.1504Z" fill="white"/>
<path d="M164.584 93.1382C168.511 93.1382 171.358 94.9449 172.844 97.1058V93.5456H179.211V118.751C179.211 125.534 175.055 130.901 166.848 130.901C159.809 130.901 154.892 127.377 154.273 121.638H160.534C161.171 123.905 163.505 125.393 166.671 125.393C170.138 125.393 172.844 123.409 172.844 118.751V114.871C171.358 117.032 168.511 118.981 164.584 118.981C158.217 118.981 153.176 113.791 153.176 105.98C153.176 98.1508 158.235 93.1382 164.584 93.1382ZM166.212 98.6999C162.833 98.6999 159.632 101.233 159.632 105.98C159.632 110.727 162.833 113.437 166.212 113.437C169.678 113.437 172.844 110.815 172.844 106.068C172.844 101.321 169.678 98.6999 166.212 98.6999Z" fill="white"/>
<path d="M195.165 93.1382C199.18 93.1382 201.939 95.0334 203.424 97.1058V93.5456H209.792V118.573H203.424V114.907C201.939 117.068 199.091 118.981 195.129 118.981C188.815 118.981 183.757 113.791 183.757 105.98C183.757 98.1508 188.815 93.1382 195.165 93.1382ZM196.792 98.6999C193.414 98.6999 190.212 101.233 190.212 105.98C190.212 110.727 193.414 113.437 196.792 113.437C200.258 113.437 203.424 110.815 203.424 106.068C203.424 101.321 200.258 98.6999 196.792 98.6999Z" fill="white"/>
<path d="M216.955 98.7534H213.984V93.5636H216.955V87.3643H223.322V93.5459H228.911V98.7357H223.322V110.833C223.322 112.498 223.994 113.225 225.975 113.225H228.911V118.574H224.95C220.174 118.574 216.973 116.537 216.973 110.798V98.7534H216.955Z" fill="white"/>
<path d="M244.37 118.981C237.1 118.981 231.83 113.915 231.83 106.069C231.83 98.1689 236.976 93.1562 244.37 93.1562C251.586 93.1562 256.68 98.0803 256.68 105.537C256.68 106.352 256.627 107.167 256.503 107.982H238.232C238.551 111.684 241.08 113.756 244.228 113.756C246.934 113.756 248.42 112.392 249.233 110.727H256.043C254.699 115.315 250.56 118.981 244.37 118.981ZM238.285 103.713H250.153C250.065 100.418 247.447 98.346 244.193 98.346C241.168 98.346 238.781 100.277 238.285 103.713Z" fill="white"/>
</svg>
