<svg width="88" height="88" viewBox="0 0 88 88" fill="none" xmlns="http://www.w3.org/2000/svg">
<path d="M79.6435 46.7575C80.1406 40.4433 78.9445 34.1109 76.1785 28.4131C71.6002 32.7632 66.1882 36.1409 60.2689 38.3425C60.7448 44.1847 60.4812 50.0636 59.4842 55.8398C66.6873 54.0257 73.5124 50.9508 79.6435 46.7575ZM53.6579 57.0168C54.829 51.4178 55.2385 45.6864 54.8752 39.9778C51.3845 40.8101 47.7435 41.2501 43.9999 41.2501C40.2562 41.2501 36.6152 40.8101 33.1245 39.9778C32.7698 45.6863 33.1792 51.4167 34.3419 57.0168C40.7432 57.998 47.2566 57.998 53.6579 57.0168ZM35.8305 62.7698C41.2578 63.4119 46.7419 63.4119 52.1692 62.7698C50.3039 68.7742 47.5503 74.4657 43.9999 79.6548C40.4494 74.4657 37.6957 68.7743 35.8305 62.7698ZM28.5155 55.8435C27.5132 50.0654 27.2495 44.1834 27.7309 38.3388C21.8102 36.1378 16.3969 32.7601 11.8175 28.4095C9.0522 34.1087 7.85734 40.4424 8.3562 46.7575C14.4874 50.9508 21.3125 54.0293 28.5155 55.8435ZM78.3052 54.0908C76.4539 60.3642 72.9195 66.0107 68.0857 70.4172C63.2519 74.8238 57.3034 77.822 50.8859 79.0865C54.0998 73.6827 56.5527 67.8614 58.1752 61.7871C65.25 60.3043 72.0446 57.7078 78.3052 54.0945V54.0908ZM9.69454 54.0908C15.8619 57.6511 22.6379 60.2801 29.8245 61.7871C31.4471 67.8614 33.9 73.6827 37.1139 79.0865C30.6968 77.8223 24.7486 74.8246 19.9148 70.4188C15.081 66.0129 11.5464 60.3672 9.69454 54.0945V54.0908ZM50.8859 8.91013C59.9709 10.6958 68.0095 15.9348 73.3112 23.5255C69.3977 27.4795 64.7258 30.6024 59.5759 32.7068C58.1883 24.3021 55.241 16.2311 50.8859 8.91013ZM43.9999 8.34546C49.3511 16.1632 52.8669 25.0888 54.2849 34.4558C50.9959 35.2991 47.5492 35.7501 43.9999 35.7501C40.4505 35.7501 37.0039 35.3028 33.7149 34.4558C35.1327 25.0888 38.6486 16.1631 43.9999 8.34546ZM37.1139 8.91013C32.7587 16.2311 29.8114 24.3021 28.4239 32.7068C23.2739 30.6025 18.602 27.4796 14.6885 23.5255C19.9907 15.9359 28.0293 10.6945 37.1139 8.91013Z" fill="#ED3324"/>
</svg>
